<svg xmlns="http://www.w3.org/2000/svg" xmlns:xlink="http://www.w3.org/1999/xlink" width="41" height="31" viewBox="0 0 41 31">
  <defs>
    <clipPath id="clip-path">
      <rect id="Rectangle_103" data-name="Rectangle 103" width="41" height="31" fill="#fff"/>
    </clipPath>
  </defs>
  <g id="Discord-Logo-White" clip-path="url(#clip-path)">
    <path id="Path_29" data-name="Path 29" d="M34.521,2.988A33.628,33.628,0,0,0,26.22.414a.126.126,0,0,0-.133.063A23.423,23.423,0,0,0,25.053,2.6a31.045,31.045,0,0,0-9.323,0A21.484,21.484,0,0,0,14.681.477a.131.131,0,0,0-.133-.063,33.534,33.534,0,0,0-8.3,2.574.119.119,0,0,0-.055.047A34.415,34.415,0,0,0,.169,26.245a.14.14,0,0,0,.053.1A33.816,33.816,0,0,0,10.4,31.488a.132.132,0,0,0,.143-.047,24.168,24.168,0,0,0,2.083-3.388.129.129,0,0,0-.071-.18,22.269,22.269,0,0,1-3.181-1.516.131.131,0,0,1-.013-.217c.214-.16.428-.327.632-.5a.126.126,0,0,1,.132-.018,24.116,24.116,0,0,0,20.494,0,.126.126,0,0,1,.133.016c.2.168.418.337.633.5a.131.131,0,0,1-.011.217A20.9,20.9,0,0,1,28.2,27.871a.13.13,0,0,0-.069.181,27.136,27.136,0,0,0,2.081,3.387.129.129,0,0,0,.143.049,33.7,33.7,0,0,0,10.2-5.147.131.131,0,0,0,.053-.094,34.19,34.19,0,0,0-6.029-23.21A.1.1,0,0,0,34.521,2.988ZM13.627,21.613A3.919,3.919,0,0,1,9.962,17.5a3.9,3.9,0,0,1,3.665-4.11,3.876,3.876,0,0,1,3.665,4.11A3.9,3.9,0,0,1,13.627,21.613Zm13.55,0a3.919,3.919,0,0,1-3.665-4.11,3.9,3.9,0,0,1,3.665-4.11,3.876,3.876,0,0,1,3.665,4.11A3.887,3.887,0,0,1,27.177,21.613Z" transform="translate(0.18 -0.47)" fill="#fff"/>
  </g>
</svg>
