<svg xmlns="http://www.w3.org/2000/svg" xmlns:xlink="http://www.w3.org/1999/xlink" width="425.784" height="105.359" viewBox="0 0 425.784 105.359">
  <defs>
    <linearGradient id="linear-gradient" x1="0.5" x2="0.514" y2="0.738" gradientUnits="objectBoundingBox">
      <stop offset="0" stop-color="#00fafd"/>
      <stop offset="0.468" stop-color="#00dbfa"/>
      <stop offset="1" stop-color="#39c2fc"/>
    </linearGradient>
    <linearGradient id="linear-gradient-2" x1="0.5" x2="0.5" y2="1" gradientUnits="objectBoundingBox">
      <stop offset="0" stop-color="#a802fa"/>
      <stop offset="1" stop-color="#01067d"/>
    </linearGradient>
    <linearGradient id="linear-gradient-3" x1="0.5" y1="0.399" x2="0.5" y2="0.759" gradientUnits="objectBoundingBox">
      <stop offset="0" stop-color="#00f5fc"/>
      <stop offset="0.409" stop-color="#1584fc"/>
      <stop offset="1" stop-color="#8500ff"/>
    </linearGradient>
    <linearGradient id="linear-gradient-4" x1="0.5" y1="0.024" x2="0.5" y2="0.686" gradientUnits="objectBoundingBox">
      <stop offset="0" stop-color="#00f5fc"/>
      <stop offset="1" stop-color="#133afa"/>
    </linearGradient>
    <linearGradient id="linear-gradient-5" x1="0.624" y1="0.42" x2="0.184" y2="0.774" gradientUnits="objectBoundingBox">
      <stop offset="0" stop-color="#00f5fc"/>
      <stop offset="1" stop-color="#2d7cfa"/>
    </linearGradient>
    <linearGradient id="linear-gradient-6" x1="0.5" x2="0.5" y2="1" gradientUnits="objectBoundingBox">
      <stop offset="0" stop-color="#00f5fc"/>
      <stop offset="1" stop-color="#8500ff"/>
    </linearGradient>
  </defs>
  <g id="Group_52" data-name="Group 52" transform="translate(-458.443 -2337.104)">
    <g id="Group_24" data-name="Group 24" transform="translate(544.362 2387.3)">
      <path id="Path_5" data-name="Path 5" d="M48.857-417.913h9.867l-2.888,14.536a20.643,20.643,0,0,1-6.185,2.96,26.207,26.207,0,0,1-7.485,1.035,20.565,20.565,0,0,1-9.073-1.9,14.342,14.342,0,0,1-6.065-5.319,14.461,14.461,0,0,1-2.142-7.846,19.9,19.9,0,0,1,2.744-10.445,19.025,19.025,0,0,1,7.653-7.148,23.89,23.89,0,0,1,11.263-2.575q10.493,0,15.306,6.594l-8.135,6.305a9.486,9.486,0,0,0-3.417-2.864,10.152,10.152,0,0,0-4.284-.842,9.857,9.857,0,0,0-5.126,1.3,8.679,8.679,0,0,0-3.369,3.634,11.634,11.634,0,0,0-1.179,5.319,6.178,6.178,0,0,0,1.973,4.789,7.756,7.756,0,0,0,5.439,1.8,11.389,11.389,0,0,0,3.321-.482l.751-3.737-5.11-5.12Zm35.715,11.889H71.72l-3.369,5.872H56.366l17.583-27.6-6.116-6.1H89l7.99,33.693H85.679Zm-1.589-8.183-1.637-8.616-4.958,8.616Zm62.909-19.638-6.642,33.693H128.9l2.984-15.354L122.4-403.184H117.4l-5.2-12.129-3.033,15.162H98.819l5.083-25.413.934-4.669.722-3.611H114.8l7.316,17.905,9.708-12.324,2.432-3.088,1.963-2.493Zm15.017,8.568-.77,3.947h14.247l-1.636,8.183h-14.3l-.866,4.428h16.895l-1.733,8.568H144.737l6.739-33.693h27.387l-1.733,8.568Zm52.08,2.5a13.133,13.133,0,0,1-2.383,7.822,14.1,14.1,0,0,1-6.715,4.982l13.31,22.733-19.471-12.914-4.765-8.471h-2.792l-1.684,8.471H177.13l6.739-33.693h15.114q6.642,0,10.325,2.912a9.811,9.811,0,0,1,3.682,8.158Zm-11.5,1.107q0-3.417-4.236-3.417h-3.8l-1.588,7.894h4.669a5.251,5.251,0,0,0,3.658-1.179,4.226,4.226,0,0,0,1.3-3.3Z" transform="translate(-24.887 434.615)" fill="url(#linear-gradient)"/>
      <path id="Path_28" data-name="Path 28" d="M1991.406-405.267,1989-393.041H1977.64l2.454-12.37-8.423-21.323h11.407l4.573,11.648,9.386-11.648h11.407Zm18.483-21.467h11.359l-6.739,33.693H2003.15Zm26.28,8.568-.77,3.947h14.247l-1.637,8.182h-14.3l-.866,4.428h16.895l-1.733,8.568H2020l6.739-33.693h27.387l-1.733,8.568Zm22.959-8.568h11.359l-4.958,24.885h15.21l-1.781,8.808h-26.569Zm29.7,0h15.21a22.318,22.318,0,0,1,9.169,1.733,13.292,13.292,0,0,1,5.944,4.958,13.774,13.774,0,0,1,2.069,7.6,19.2,19.2,0,0,1-2.7,10.228,17.937,17.937,0,0,1-7.484,6.787,24.151,24.151,0,0,1-10.9,2.383h-18.05l5.078-25.391-8.207-8.3Zm11.7,24.836a8.587,8.587,0,0,0,6.811-2.768,10.364,10.364,0,0,0,2.431-7.1,5.707,5.707,0,0,0-1.805-4.524,7.671,7.671,0,0,0-5.222-1.588H2098.4l-3.177,15.98Z" transform="translate(-1781.355 427.504)" fill="#ff008f"/>
    </g>
    <g id="Group_30" data-name="Group 30" transform="translate(458.443 2337.104)">
      <g id="Shape_1" data-name="Shape 1" transform="translate(0.394 0)" opacity="0.448">
        <path id="Shape_1-2" data-name="Shape 1" d="M52.739,88.338a20.717,20.717,0,0,1-4.43-.559c-.735-.162-1.488-.3-2.217-.432h0c-.97-.176-1.973-.359-2.913-.6-1.646-.42-3.171-.947-4.645-1.457-.812-.281-1.652-.571-2.5-.839-3.253-1.028-6.7-2.139-9.98-3.42L24.068,80.3l-1.926-.715c-.834-.354-1.654-.763-2.446-1.159h0c-.677-.339-1.378-.688-2.075-1-.881-.39-1.8-.853-2.816-1.417-.9-.5-1.8-1.04-2.668-1.56l0,0c-.525-.315-1.069-.64-1.611-.957-.373-.218-.75-.432-1.114-.638h0a33,33,0,0,1-3.312-2.055c-.1-.072-.2-.14-.3-.213a3.9,3.9,0,0,1-.844-.7l-.237-.291,0-.005a17.648,17.648,0,0,1-1.628-2.229,8.34,8.34,0,0,1-.621-1.3,8.472,8.472,0,0,1-.415-1.56,3.751,3.751,0,0,1-.006-1.166,9.125,9.125,0,0,1,.229-1.047h0c.057-.216.11-.42.151-.622a5.389,5.389,0,0,0,.029-1.327,6.76,6.76,0,0,0-.193-1.25,5.86,5.86,0,0,0-.559-1.277,9.192,9.192,0,0,0-.753-1.089,3.875,3.875,0,0,0-.327-.351,2.641,2.641,0,0,1-.47-.562.348.348,0,0,1,.211-.328.277.277,0,0,1,.11-.018,4.2,4.2,0,0,1,1.1.329c.15.058.278.109.362.134l.313.094a4.842,4.842,0,0,1,1.561.656,5.166,5.166,0,0,1,1.123,1.364,6.822,6.822,0,0,1,.774,1.7l.047-.023c.059-.183.123-.36.191-.548a9.2,9.2,0,0,0,.4-1.3,8.928,8.928,0,0,0-.142-4.037,20.238,20.238,0,0,0-1.208-3.276l-.009-.02c-.124-.282-.285-.6-.455-.934A14.422,14.422,0,0,1,3.43,47.054a4.558,4.558,0,0,1-.005-2.848,5,5,0,0,1,1.316-1.848A21.885,21.885,0,0,1,6.7,40.752a18.917,18.917,0,0,0,1.6-1.3l.117.023.023.047a1.634,1.634,0,0,1-.421.723,3.085,3.085,0,0,0-.235.307A8.982,8.982,0,0,0,7.207,41.6a6.058,6.058,0,0,0-.41,1.2,2.806,2.806,0,0,0-.046,1.012,1.092,1.092,0,0,0,.374.745.736.736,0,0,0,.442.13,2.284,2.284,0,0,0,.988-.3,7.764,7.764,0,0,0,.791-.481h0l.074-.05a9.765,9.765,0,0,0,1.286-1.008,7.478,7.478,0,0,0,1.043-1.2,8.309,8.309,0,0,0,1.3-3.248,5.78,5.78,0,0,0,.02-1.789A13.041,13.041,0,0,0,12.748,35c-.385-1.494-.837-2.913-1.274-4.286-.213-.67-.434-1.363-.647-2.063a13.691,13.691,0,0,1-.461-1.867,5.139,5.139,0,0,1,.039-2.069A7.65,7.65,0,0,1,12.5,21.176a19.977,19.977,0,0,1,3.176-2.482,13.1,13.1,0,0,1,1.81-1c.586-.269,1.231-.525,2.032-.8.065-.023.144-.055.236-.092h0a3.071,3.071,0,0,1,1.022-.285.63.63,0,0,1,.263.05l.033.049.061.091.023.07a14.5,14.5,0,0,0-1.591,1.9,7.342,7.342,0,0,0-1.08,2.41,5.332,5.332,0,0,0-.123,1.252,6.512,6.512,0,0,0,.123,1.254c.02.095.038.187.055.275a3.765,3.765,0,0,0,.3,1.013,4.239,4.239,0,0,0,1.883,1.805,6.459,6.459,0,0,0,2.951.678,7.657,7.657,0,0,0,1.866-.234A9.936,9.936,0,0,0,27.53,26.4a10.352,10.352,0,0,0,1.394-.826,7.522,7.522,0,0,0,1.211-1.064,6.053,6.053,0,0,0,.928-1.343,5.972,5.972,0,0,0,.545-1.662,7.166,7.166,0,0,0-.172-2.4l-.015-.081a9.784,9.784,0,0,1,.164-5.388v-.023c-1.556.113-2.644,2.261-3.294,3.545l0,.006-.1.2c-.066.129-.125.282-.188.445a2.178,2.178,0,0,1-.538.937l-.07-.023a.5.5,0,0,0-.132-.156.449.449,0,0,1-.126-.149l-.913-3.163-.047-.164-.211-.679-.211-.679a2.173,2.173,0,0,1,.617-1c.083-.092.161-.18.226-.263A17.633,17.633,0,0,1,29.24,9.629c.364-.293.712-.626,1.048-.947a15,15,0,0,1,1.2-1.068c2.3-1.77,4.232-3.132,6.067-4.287l2.259-1.272L42.172.726l.759-.368L43.671,0l.164.023A.272.272,0,0,1,44,.2l0,.008a1.386,1.386,0,0,1-.521.47,1.859,1.859,0,0,0-.44.35,7.558,7.558,0,0,0-.786,1.215,7.864,7.864,0,0,0-.573,1.409,5.081,5.081,0,0,0-.156,1.014c-.019.225-.04.457-.078.7A6.078,6.078,0,0,0,41.7,8.433a10.187,10.187,0,0,0,1.218,2.273,11.47,11.47,0,0,0,1.551,1.847,16.4,16.4,0,0,0,1.868,1.552A45.125,45.125,0,0,0,50.6,16.713c.861.485,1.751.986,2.595,1.506a23.5,23.5,0,0,1,2.4,1.67,6.286,6.286,0,0,1,1.642,2.065,10.1,10.1,0,0,1,.553,1.294c.154.436.294.908.429,1.443l.211,1.171.211,1.171.047-.023a4.728,4.728,0,0,1,.427-.775,5.246,5.246,0,0,0,.44-.795,10.788,10.788,0,0,0,.574-2.534h0c.033-.227.068-.462.105-.7a5.983,5.983,0,0,0,.042-.849c0-.67.008-1.363.38-1.587a.221.221,0,0,1,.154.1l.01.013a3.407,3.407,0,0,0,.189,1.415,14.255,14.255,0,0,0,.443,1.373,11.814,11.814,0,0,0,1.062,1.977c.4.61.835,1.175,1.281,1.747.161.206.334.411.5.61a7.563,7.563,0,0,1,1.279,1.874,4.682,4.682,0,0,1,.3,1.87,10.43,10.43,0,0,1-.229,1.972,26.385,26.385,0,0,0-.389,2.832h0c-.067.663-.136,1.349-.243,2.063a10.976,10.976,0,0,0-.114,1.233,6.189,6.189,0,0,0,.067,1.25,4.362,4.362,0,0,0,.31,1.015,5.615,5.615,0,0,0,.5.9,14.041,14.041,0,0,0,1.3,1.565c.327.356.635.693.908,1.044l.088.113.012.016c.57.737,1.756,2.27,2.688,2.307a1.465,1.465,0,0,0,.726-.933,4.291,4.291,0,0,0,.142-1.452,12.631,12.631,0,0,0-.539-2.862c-.058-.191-.114-.392-.174-.605h0a7.19,7.19,0,0,0-.81-2.087c-.158-.224-.372-.242-.642-.265a2.641,2.641,0,0,1-.436-.063,1.9,1.9,0,0,1-1.007-.609,3.264,3.264,0,0,1-.556-1.1,5.141,5.141,0,0,1-.195-1.3,9.345,9.345,0,0,1,.376-2.726c.038-.133.066-.275.1-.427a1.953,1.953,0,0,1,.372-.979l.164.023.141.117a2.077,2.077,0,0,1-.1.534,1.659,1.659,0,0,0-.084.8,5.2,5.2,0,0,0,.667,1.83,3.438,3.438,0,0,0,.573.709,2.555,2.555,0,0,0,.727.483,6.569,6.569,0,0,0,.82.3,3.679,3.679,0,0,0,.99.153,2.3,2.3,0,0,0,.369-.029c.095-.015.223-.046.373-.081a4.7,4.7,0,0,1,.913-.157.549.549,0,0,1,.19.027,1.675,1.675,0,0,1,.766.8,8.829,8.829,0,0,1,.5,1.123l.006.015.037.1a13.083,13.083,0,0,1,.647,2.365c.156.83.27,1.712.38,2.564.086.665.175,1.354.285,2.028l.06.959.127,2.039.105,1.5.105,1.5v0a3.644,3.644,0,0,1,.046,1.308c-.088.347-.636.492-1.166.633a3.22,3.22,0,0,0-.8.28,2.341,2.341,0,0,0-.67.691,4.7,4.7,0,0,0-.521,1.071,5.858,5.858,0,0,0-.289,1.3A5.24,5.24,0,0,0,73.517,58q.023.41.047.82l.2.248.075.09.166.2a8.984,8.984,0,0,0,1.231,1.263c.478.409.984.775,1.416,1.079.1.068.207.14.324.216h0A3.207,3.207,0,0,1,78.2,63.041a1.553,1.553,0,0,1-.083.9c-.109.386-.278.833-.427,1.227a9.693,9.693,0,0,0-.333.968l-.444,2.717-.151.923-.112.686-.534,3.265L75.972,74.8l-.159,1.176a2.306,2.306,0,0,0-.028.325.991.991,0,0,1-.089.471A3.815,3.815,0,0,1,74.317,77.9h0c-.218.13-.424.254-.611.386a42.525,42.525,0,0,1-4.141,2.477c-.761.417-1.549.849-2.3,1.294-1.08.64-2.2,1.25-3.289,1.84h0c-.974.53-1.982,1.077-2.964,1.649a28.27,28.27,0,0,1-2.885,1.495,17.443,17.443,0,0,1-3.276,1.082A9.847,9.847,0,0,1,52.739,88.338ZM2.127,54.71c-.3,0-.617-.357-.824-.594-.05-.057-.093-.106-.128-.141a3.134,3.134,0,0,1-.7-.937,7.557,7.557,0,0,1-.508-2.469,4.076,4.076,0,0,1,.135-1.3,1.347,1.347,0,0,1,.608-.843,1.141,1.141,0,0,1,.752.523A5.347,5.347,0,0,1,2.093,50.1a13.046,13.046,0,0,1,.746,2.47,3.329,3.329,0,0,1-.049,1.308c-.117.475-.325.768-.584.825A.37.37,0,0,1,2.127,54.71Z" transform="translate(0.043)" fill="#133afa"/>
      </g>
      <g id="Shape_2" data-name="Shape 2" transform="translate(0 13.165)">
        <path id="Shape_2-2" data-name="Shape 2" d="M38.041,92.195a.75.75,0,0,1-.123-.01,5.412,5.412,0,0,1-1.442-.512h0c-.118-.056-.241-.113-.36-.166a29.256,29.256,0,0,1-5.745-3.67l-.135-.1c-1.335-1.009-2.772-2.118-4.521-3.491l-2.53-2.249a21.047,21.047,0,0,1-2.858-2.764L17.49,76l-1.663-2.179c-.641.005-1.344.061-2.089.12-.827.066-1.682.134-2.5.134a9.494,9.494,0,0,1-1.533-.108,4.4,4.4,0,0,1-1.308-.4,3.208,3.208,0,0,1-.949-1.072,5.929,5.929,0,0,1-.667-1.365,13.255,13.255,0,0,1-1.59-.234,3.807,3.807,0,0,1-1.362-.516,3.323,3.323,0,0,1-.968-1.257,14.646,14.646,0,0,1-.655-1.648c-.1-.289-.2-.563-.3-.819A25.151,25.151,0,0,1,.869,63.243C.568,61.975.327,60.63.13,59.482a10.936,10.936,0,0,1-.136-1.819A6.575,6.575,0,0,1,.2,55.921a4,4,0,0,1,.413-.876,7.461,7.461,0,0,1,.637-.883,7.88,7.88,0,0,1,1.457-1.38,9.729,9.729,0,0,1,.26-1.942,5.872,5.872,0,0,1,.283-.874,3.123,3.123,0,0,1,.394-.7,3.354,3.354,0,0,1,1.142-.8c.143-.074.292-.151.428-.23l1.312-.656a19.549,19.549,0,0,1,.632-3.28c.11-.432.217-.865.32-1.283a36.487,36.487,0,0,1,1.367-4.667l.38-.911.05-.12.042-.1.418-1a2.493,2.493,0,0,1,.155-.283,1.532,1.532,0,0,0,.243-.56,3.416,3.416,0,0,1-.409-1.224,4.213,4.213,0,0,1-.06-1.493,4.769,4.769,0,0,1,.449-1.116c.079-.156.16-.317.23-.477a34.648,34.648,0,0,1,1.9-3.819c.063-.106.124-.218.188-.335a5.023,5.023,0,0,1,.458-.739,1.424,1.424,0,0,1,.666-.5.924.924,0,0,1,.586.515l.047-.023a7.551,7.551,0,0,1,.2-1.346,4.381,4.381,0,0,1,.434-1.161c1.088-1.839,3.587-3.6,5.412-4.879l.012-.008.246-.173.113-.08h0a14.746,14.746,0,0,1,1.278-.835,3.372,3.372,0,0,1,1.5-.536.78.78,0,0,1,.343.07,5.617,5.617,0,0,1,.187,1.57L24,18.742l1.675-1.218.239-.174,1.436-1.044c.626-.448,1.448-1.046,2.258-1.706a22.226,22.226,0,0,0,2.243-2.072,15.212,15.212,0,0,0,1-1.179,11.923,11.923,0,0,0,.848-1.277A9.648,9.648,0,0,0,34.347,8.7a8.3,8.3,0,0,0,.408-1.479,7.1,7.1,0,0,0-.106-2.58,22.906,22.906,0,0,0-.638-2.378c-.053-.169-.1-.328-.146-.477a4.87,4.87,0,0,0-.194-.5A2.1,2.1,0,0,1,33.4.142L33.414.13l.053-.036.069-.046L33.654,0h.121a8.174,8.174,0,0,1,1.907.257c.627.151,1.243.349,1.786.524h0c.2.064.385.124.565.18a27.731,27.731,0,0,1,2.89,1.066,25.372,25.372,0,0,1,2.493,1.251c.735.42,1.482.893,2.285,1.446.66.455,1.359.963,2.266,1.649l.417.313.008.006a13.326,13.326,0,0,1,2.48,2.188,3.187,3.187,0,0,0,.238.254,1.743,1.743,0,0,1,.418.543,3.3,3.3,0,0,1,.082,1.2c-.006.149-.012.289-.012.417l-.105,1.678-.129,2.047a31.953,31.953,0,0,1,3.552,2.018c1.051.685,2.142,1.472,3.242,2.339a13.118,13.118,0,0,1,1.275,1.11,4.488,4.488,0,0,1,.974,1.4,6.21,6.21,0,0,1,.328,2.061l.019-.009.028-.014a4.4,4.4,0,0,1,.379-.835,1.583,1.583,0,0,1,.581-.641.642.642,0,0,1,.162-.022.954.954,0,0,1,.661.395c.032.034.062.066.091.1a7.1,7.1,0,0,1,1.163,1.722v0c.115.211.233.429.359.643.361.615.7,1.264,1.023,1.892h0c.321.62.654,1.26,1.014,1.878.057.1.116.2.173.292.184.309.375.629.538.968a4.268,4.268,0,0,1,.367,1.083,2.288,2.288,0,0,1-.137,1.1h0c-.018.058-.035.113-.05.166l-.383,1.564-.156.638a6.431,6.431,0,0,0,.261,1.072c.152.53.3,1.016.348,1.107l.773.586c.112.085.242.178.38.277l0,0a12.861,12.861,0,0,1,1.321,1.046,2.627,2.627,0,0,1,.85,1.276,3.923,3.923,0,0,1-.243,1.866c-.031.1-.06.2-.085.289-.356,1.277-.636,2.23-.937,3.186L68.7,47.3a17.241,17.241,0,0,1,2.227.971,6.03,6.03,0,0,1,1.02.682,2.3,2.3,0,0,1,.642.807,8.912,8.912,0,0,1,.515,1.757l.066.59.027.241.048.434.82.7A6.035,6.035,0,0,1,75.8,56.107a8.417,8.417,0,0,1,.155,2.06,12.2,12.2,0,0,1-.225,2.017l-.243,1.41-.024.141-.084.487a39.893,39.893,0,0,1-1.523,4.92c-.079.2-.155.407-.235.626a13.141,13.141,0,0,1-.607,1.473,3.094,3.094,0,0,1-.891,1.134,6.673,6.673,0,0,1-2.952.75,5.991,5.991,0,0,1-.631,1.305,3.537,3.537,0,0,1-.869,1.061,3.765,3.765,0,0,1-1.323.455,9.638,9.638,0,0,1-1.646.12c-.846,0-1.733-.068-2.59-.133h0c-.725-.055-1.41-.108-2.007-.114l-.412.549-.361.481c-.569.774-1.209,1.5-1.827,2.192-.446.5-.907,1.023-1.335,1.556a23.262,23.262,0,0,1-1.819,2,26.831,26.831,0,0,1-2.023,1.8l-2.2,1.944c-.448.349-.9.707-1.342,1.053l0,0c-1.434,1.129-2.917,2.3-4.442,3.373l-.115.081a25.162,25.162,0,0,1-4.383,2.66c-.086.038-.2.1-.329.161a3.945,3.945,0,0,1-1.469.527Zm-.863-2.181a.22.22,0,0,1,.084.016,1.28,1.28,0,0,1,.31.2,1.119,1.119,0,0,0,.44.246l.312-.2.437-.273.107.018.174.029,1-.72.119-.086,1.482-1.069c1.213-.867,2.364-1.847,3.477-2.8.645-.549,1.312-1.118,1.982-1.656l1.68-1.548.1-.092a14.851,14.851,0,0,0,1.249-1.178,14.789,14.789,0,0,1,1.235-1.165,21.945,21.945,0,0,0,3.209-3.35l.953-1.111,1.319-1.536a.4.4,0,0,0,.036-.259.655.655,0,0,1,.011-.233l.044-.078L57,73.064l.289-.511a1.238,1.238,0,0,1,.545-.359,2.14,2.14,0,0,0,.392-.2l.28-.36.8-1.022c.171-.214,1.273-1.317,1.687-1.317a.186.186,0,0,1,.047.006.419.419,0,0,1,.295.224c.145.312-.1.829-.234,1.106l-.013.028a1.776,1.776,0,0,1,.211.492,13.143,13.143,0,0,1,1.682.188,14.84,14.84,0,0,0,2.151.223,3.743,3.743,0,0,0,1.063-.13c.3-.089.6-.623.887-1.14a3.729,3.729,0,0,1,.659-.969,3.608,3.608,0,0,1,1.164-.48,2.609,2.609,0,0,0,1.389-.691,3.863,3.863,0,0,0,.447-1.063h0c.057-.184.116-.374.185-.553a19.3,19.3,0,0,0,.691-2.206c.2-.761.365-1.546.545-2.377h0l.053-.242a25.074,25.074,0,0,0,.377-2.7c.071-.682.144-1.386.255-2.081a5.553,5.553,0,0,0,.073-.923,1.045,1.045,0,0,0-.191-.717.976.976,0,0,1-.506.151.925.925,0,0,1-.633-.263,1.265,1.265,0,0,1-.359-.613v-.984a1.139,1.139,0,0,0-.13-.233,1.038,1.038,0,0,1-.174-.353.379.379,0,0,1,.121-.4.505.505,0,0,0,.09-.113A2.793,2.793,0,0,0,71,51.5a6.493,6.493,0,0,0-.28-.9,7.477,7.477,0,0,0-1.867-1.079h0c-.375-.181-.7-.338-.872-.443l-.211.164-.211.164a1.062,1.062,0,0,1-.443.119.544.544,0,0,1-.513-.4,3.254,3.254,0,0,1-.175-.784,1.152,1.152,0,0,0-.158-.578,1.5,1.5,0,0,0-.091-.151.518.518,0,0,1-.1-.506,1.252,1.252,0,0,1,.5-.2l.008,0,.105-.028.227-.747.033-.108.139-.456.48-1.581.48-1.581c.026-.085.053-.17.081-.259h0a5.412,5.412,0,0,0,.317-1.474l-.82-.679H67.6a.724.724,0,0,1-.723.445,1.111,1.111,0,0,1-.823-.351,3.032,3.032,0,0,1-.468-1.292,6.869,6.869,0,0,0-.165-.676l-.087-.195-.065-.145-.039-.087-.113-.253a1.54,1.54,0,0,1-.016-.377.871.871,0,0,0-.055-.443.544.544,0,0,0-.175-.173.551.551,0,0,1-.223-.249,10.192,10.192,0,0,1-.136-1.449,8.658,8.658,0,0,1,0-1.386.512.512,0,0,1,.234-.234.519.519,0,0,0,.188-.164l.141-.562.187-.75-.354-.685-.137-.266-.282-.548c-.54-1.058-1.173-2.284-1.851-3.444l-.309-.567-.253-.464a9.09,9.09,0,0,1-.441,1.877h0c-.043.137-.083.265-.121.395l-.152.621-.152.621a1.4,1.4,0,0,1-.344.43,1.358,1.358,0,0,0-.382.507l-.05.132c-.189.5-.5,1.339-1.046,1.339a.834.834,0,0,1-.52-.229,1.908,1.908,0,0,1-.245-.954,5.546,5.546,0,0,1-.012-1.2,7.358,7.358,0,0,0,.044-1.288,8.087,8.087,0,0,1,.05-1.406,12.2,12.2,0,0,0-.141-3.655,1.778,1.778,0,0,0-.459-.8,6.045,6.045,0,0,0-.683-.61l-.012-.01-.04-.032-.369-.3,0,0c-.625-.5-1.271-1.027-1.936-1.513a17.853,17.853,0,0,0-2.118-1.348,9.852,9.852,0,0,0,.377,1.281,10.649,10.649,0,0,1,.4,1.343l.012.85.012.813a1.268,1.268,0,0,0,.17.183c.185.177.415.4.3.684l-.141.141a.627.627,0,0,1-.191.029,1.619,1.619,0,0,1-.689-.225h0c-.062-.031-.12-.06-.174-.084l-.351-.164-.117-.055-.234-.109a.844.844,0,0,0-.19-.019c-.054,0-.107,0-.157.008h0c-.051,0-.1.007-.149.007a.536.536,0,0,1-.321-.089,1.124,1.124,0,0,1-.314-.4h0a2.411,2.411,0,0,0-.131-.211.778.778,0,0,1-.34.108.344.344,0,0,1-.2-.062.514.514,0,0,1-.183-.317.954.954,0,0,0-.1-.245l-.019-.012-.046-.031-.216-.144a7.225,7.225,0,0,1-.606-.563,2.547,2.547,0,0,1-.495-.632.483.483,0,0,1,.009-.446.516.516,0,0,1,.453-.166,1.741,1.741,0,0,1,.475.072l-.117-1.242-.117-1.242q-.035-.86-.07-1.719v-.014l0-.127L49.48,15q.029-1.347.058-2.695h0a1.371,1.371,0,0,1-.487-.081,1.125,1.125,0,0,1-.354-.213,2.664,2.664,0,0,1-.485-.648c-.07-.116-.142-.235-.22-.346A11.062,11.062,0,0,0,45.953,8.88L45.3,8.356,43.47,6.888l-1.2-.755-.812-.51L39.441,4.359A11.1,11.1,0,0,0,38.385,3.8h0a11.4,11.4,0,0,1-1.076-.567c-.176-.109-.356-.229-.546-.356a8.745,8.745,0,0,0-1.445-.839,17.1,17.1,0,0,1,1.242,3.233A6.522,6.522,0,0,1,36.752,6.8a7.907,7.907,0,0,1-1.036,3.956,19.321,19.321,0,0,1-3.462,4.222,41.306,41.306,0,0,1-4.268,3.416l-.608.443-.029.021-2.831,2.066a1.316,1.316,0,0,1-.1.7,2.81,2.81,0,0,0-.088.284l-.047.562-.645,1.182-.008.014-.332.608c-.077.131-.143.275-.214.428a2.424,2.424,0,0,1-.489.79,1.3,1.3,0,0,1-.827.312.994.994,0,0,1-.391-.078,1.047,1.047,0,0,1-.589-.844,3.579,3.579,0,0,1,.05-1.288c.038-.186.1-.385.154-.577a4.454,4.454,0,0,0,.174-.711l-.084-.224-.056-.151a1.724,1.724,0,0,1,.094-.82,1.057,1.057,0,0,1,.37-.417,1.554,1.554,0,0,0,.263-.239l.164-.421.164-.421-.023-.023c-.731.536-1.424,1.151-2.094,1.746-.491.436-1,.886-1.514,1.3a10.609,10.609,0,0,0-1.091.979,3.967,3.967,0,0,0-.83,1.223,10.241,10.241,0,0,0-.462,2.289c-.054.414-.1.805-.17,1.155-.017.09-.037.185-.057.285a3.929,3.929,0,0,0-.13,1.332,1.112,1.112,0,0,1-.087.589,2.22,2.22,0,0,1-.356.591,1.175,1.175,0,0,1-.786.492h0a.428.428,0,0,1-.083-.008.835.835,0,0,1-.451-.23.953.953,0,0,1-.228-.415,4.161,4.161,0,0,1-.084-1.136,6.506,6.506,0,0,0-.023-.813,1.258,1.258,0,0,0-.222-.639v.047l-.53,1.308-.044.107-.129.318c-.107.25-.231.492-.351.726A7.267,7.267,0,0,0,11.824,32a3.329,3.329,0,0,0-.133.657,3.294,3.294,0,0,0,.014.747c.139.022.185.054.234.164a9.944,9.944,0,0,1-.258,2.881.506.506,0,0,1-.425.191.913.913,0,0,0-.3.067l-.469,1.324-.469,1.324a31.262,31.262,0,0,0-.89,3.6,24.539,24.539,0,0,0-.421,3.968l.138-.009c.126-.009.256-.017.381-.017a1.267,1.267,0,0,1,.4.051.4.4,0,0,1,.253.21c.1.178,0,.418-.29.713a4.713,4.713,0,0,1-.647.528,2.477,2.477,0,0,0-.377.348,2.512,2.512,0,0,1-.326.308l-.129.046-.056.02-.071.025-.142.05a.689.689,0,0,0-.161.229.535.535,0,0,1-.26.287.433.433,0,0,1-.18.039.9.9,0,0,1-.185-.025.908.908,0,0,0-.186-.026.431.431,0,0,0-.1.012,5.243,5.243,0,0,0-.805.405,3.692,3.692,0,0,0-.718.485,6.2,6.2,0,0,0-.287.9,3.3,3.3,0,0,0-.158.955.377.377,0,0,0,.1.13.356.356,0,0,1,.132.386,1.156,1.156,0,0,1-.179.382,1.371,1.371,0,0,0-.125.227l.023.609a1.266,1.266,0,0,1-.586,1.171.553.553,0,0,1-.294.079,1.3,1.3,0,0,1-.355-.064l-.024-.007-.006,0a1.056,1.056,0,0,0-.268-.055l-.037,0a1.938,1.938,0,0,0-.1.658c-.012.275-.008.616.013,1.012a17.591,17.591,0,0,0,.186,1.844c.089.5.173,1,.254,1.487a29.838,29.838,0,0,0,1.363,5.822c.087.225.16.469.231.706a4.47,4.47,0,0,0,.542,1.309,2.452,2.452,0,0,0,1.36.664,4.056,4.056,0,0,1,1.006.367,3.449,3.449,0,0,1,1.017,1.307,6.317,6.317,0,0,0,.482.778c.153.2.7.269,1.124.269a3.23,3.23,0,0,0,.493-.034l2.442-.244.4-.04.669-.067,0-.012c.072-.171.194-.462.206-.48l-.017-.034,0-.005A1.543,1.543,0,0,1,14.6,69.6a.437.437,0,0,1,.244-.254.539.539,0,0,1,.219-.043.548.548,0,0,1,.273.066l.586.609.126.109.577.5.984,1.288a1.045,1.045,0,0,0,.442.266h0a1.946,1.946,0,0,1,.283.132,2.1,2.1,0,0,1,.586.679.911.911,0,0,1,.1.405.9.9,0,0,0,.091.391l.865,1.007c.383.487.8.954,1.2,1.405h0c.357.4.727.815,1.07,1.241l.8.8A19.941,19.941,0,0,0,25.83,80.94l1.418,1.351.058.055c.737.594,1.456,1.228,2.152,1.842.821.725,1.67,1.474,2.557,2.164l.451.351c1.009.787,2.052,1.6,3.134,2.366l.572.429.739.555a.145.145,0,0,0,.038,0,.386.386,0,0,0,.1-.021l.005,0a.436.436,0,0,1,.119-.021Z" transform="translate(0.006)" fill="#ff008f"/>
      </g>
      <g id="Shape_3" data-name="Shape 3" transform="translate(2.391 66.813)">
        <path id="Shape_3-2" data-name="Shape 3" d="M4.8,15.243a1.491,1.491,0,0,1-.571-.117,2.1,2.1,0,0,1-.488-.291,4.328,4.328,0,0,1-.719-.756,11.911,11.911,0,0,1-1.845-3.731C.959,9.683.766,8.963.584,8.146.432,7.464.285,6.707.136,5.833A9.951,9.951,0,0,1,.029,3.45,4.755,4.755,0,0,1,.557,1.429,2.808,2.808,0,0,1,1.223.7,3.642,3.642,0,0,1,2.1.187L2.148.175l.224-.06L2.806,0c.327.039.389.157.513.393l0,.005a.836.836,0,0,1-.092.287.937.937,0,0,0-.072.182l-.105.8-.105.8a6.329,6.329,0,0,0-.04,1.462,13.511,13.511,0,0,0,.181,1.4c.115.644.2,1.273.291,1.88a27.521,27.521,0,0,0,.553,3.063l.522,1.721.415,1.371c.029.084.07.177.113.275A1.735,1.735,0,0,1,5.2,14.712c.113,0,.23-.015.343-.028h0a3.046,3.046,0,0,1,.329-.026.522.522,0,0,1,.265.054.423.423,0,0,1-.274.383,1.885,1.885,0,0,1-.551.1c-.1.009-.2.018-.3.033a1.456,1.456,0,0,1-.213.015ZM66.2,15.23l-.12,0a1.336,1.336,0,0,1-1.031-.375.278.278,0,0,1,.052-.183h0l.018-.028.843.07a2.65,2.65,0,0,1,.245-1.079c.045-.113.09-.23.13-.35l.248-.8.1-.329.282-.91a32.464,32.464,0,0,0,.891-4.179V7.061c.053-.31.107-.631.162-.946A18.714,18.714,0,0,0,68.259,4.2a9.437,9.437,0,0,0-.046-2.019c-.023-.144-.067-.359-.113-.587A5.828,5.828,0,0,1,67.908.258a.558.558,0,0,1,.485-.231,2.26,2.26,0,0,1,.968.325,2.877,2.877,0,0,1,1.219,1.126,3.6,3.6,0,0,1,.32.794A8.981,8.981,0,0,1,71.118,3.3a10.572,10.572,0,0,1-.258,3.608,35.375,35.375,0,0,1-.968,3.693,12.19,12.19,0,0,1-1.516,3.148A2.625,2.625,0,0,1,66.2,15.23Z" transform="translate(-0.001)" fill="#ff008f"/>
      </g>
      <g id="Shape_4" data-name="Shape 4" transform="translate(8.909 34.177)">
        <path id="Shape_4-2" data-name="Shape 4" d="M27.843,0C41.4-.159,49.579,6.517,54.526,14.972a29.655,29.655,0,0,1,1.9,4.311c1.191,3.071,2.286,8.488,1.312,12.51-.3,1.249-.049,2.78-.914,3.444a1.692,1.692,0,0,1-2.577-.773,4.1,4.1,0,0,1,.164-1.944,18.467,18.467,0,0,0,.234-3.491V27.857l-.281-2.881a30.6,30.6,0,0,0-1.546-5.646A25.492,25.492,0,0,0,36.909,4.5a31.387,31.387,0,0,0-4.873-1.1L29.9,3.259a9.2,9.2,0,0,0-2.554.023,40.075,40.075,0,0,0-5.13.89c-7.52,2.3-13.405,7.217-16.4,14.009a33.454,33.454,0,0,0-1.991,6.489c-.217,1-.154,2.067-.328,3.139v2.2l.234,2.507a4.355,4.355,0,0,1,.187,1.851,1.68,1.68,0,0,1-2.6.867C.46,34.567.709,33.051.41,31.793c-.056-.236-.227-.443-.281-.726a11.493,11.493,0,0,1-.047-3.092l.141-2.3a42.274,42.274,0,0,1,1.031-4.967c2.89-9.35,9.047-15.557,17.851-19A32.943,32.943,0,0,1,24.634.307L26.953.05Z" transform="translate(0.001 0)" fill="#ff008f" fill-rule="evenodd"/>
      </g>
      <g id="Shape_5" data-name="Shape 5" transform="translate(4.072 61.047)">
        <path id="Shape_5-2" data-name="Shape 5" d="M61.02,23.564a14.944,14.944,0,0,1-3.973-.831c-.574-.175-1.069-.326-1.455-.406h-.515a4.75,4.75,0,0,1-.906-.472,3.289,3.289,0,0,1-.78-.606l.033-.049.061-.092a16.652,16.652,0,0,1-1.416-2.436,12.961,12.961,0,0,1-.95-2.952,5.169,5.169,0,0,1,0-1.64l.074-.757.066-.672a25.605,25.605,0,0,1,.96-3.209c.241-.682.459-1.415.69-2.19a31.774,31.774,0,0,1,1.233-3.615,9.619,9.619,0,0,1,.836-1.552A5.166,5.166,0,0,1,56.06.892a4.319,4.319,0,0,1,1.405-.75l.8-.141.274,0a14.5,14.5,0,0,1,3.5.421,18.058,18.058,0,0,1,2.931,1.011,9.22,9.22,0,0,1,1.189.591,2.7,2.7,0,0,1,.919.861,3.428,3.428,0,0,1,.352,1.293h0c.027.19.055.386.093.581l.258,1.874q.023.644.047,1.288V9.841l-.137,1.1L67.515,12.3A43.316,43.316,0,0,1,66.4,16.662a18.722,18.722,0,0,1-1.653,3.815l-.11.187a6.791,6.791,0,0,1-2.116,2.554,2.269,2.269,0,0,1-.691.267,3.831,3.831,0,0,1-.814.08ZM6.648,23.557a2.66,2.66,0,0,1-1.025-.175A3.6,3.6,0,0,1,4.2,22.248a12.271,12.271,0,0,1-1.017-1.579v0c-.067-.117-.137-.238-.2-.354A17.966,17.966,0,0,1,1.4,16.629C.957,15.22.61,13.721.328,12.442l-.137-1.08L.16,11.12,0,9.865V7.9l.023-.644.023-.644L.3,4.734c.039-.193.067-.387.095-.575A3.4,3.4,0,0,1,.75,2.884a3.071,3.071,0,0,1,1.006-.943,8.611,8.611,0,0,1,1.52-.732A25.8,25.8,0,0,1,6.583.26L8.434,0h.291c.317,0,.687,0,1.03.04a3.335,3.335,0,0,1,.881.2,4.208,4.208,0,0,1,.812.427,4.6,4.6,0,0,1,.69.574,6.494,6.494,0,0,1,1.079,1.491A20.785,20.785,0,0,1,14.629,6.4l.036.114c.192.609.4,1.212.6,1.795a36.2,36.2,0,0,1,1.279,4.367,8.831,8.831,0,0,1,.141,3.186,13.2,13.2,0,0,1-.944,2.87,15.143,15.143,0,0,1-1.4,2.378c.109.142.046.215-.04.316l-.03.035-1.452.843a.5.5,0,0,1-.176.028c-.047,0-.094,0-.14-.008h0c-.047,0-.095-.008-.143-.008a.6.6,0,0,0-.126.012l-.3.1-.8.274a18.432,18.432,0,0,1-1.852.432h0c-.279.055-.568.112-.865.177A8.653,8.653,0,0,1,6.648,23.557Z" transform="translate(0 0)" fill="url(#linear-gradient-2)"/>
      </g>
      <g id="Shape_6" data-name="Shape 6" transform="translate(10.916 15.462)">
        <path id="Shape_6-2" data-name="Shape 6" d="M26.259,0l.609.164a16.416,16.416,0,0,1,2.249.7l1.312.562c.143.493,2.058,1.7,2.554,2.062L36.5,6.325a9.576,9.576,0,0,1,1.124,2.155c1.5,3.664.592,9.849,1.944,13.681a5.768,5.768,0,0,0,1.382,2.6l.328-.7a12.457,12.457,0,0,0,1.195-4.943,7.723,7.723,0,0,0-.445-2.764c-.1-.295-.105-.607.141-.726.271-.151.712.132.914.234A15.557,15.557,0,0,1,45.3,17.242c1.038.764,2.885,2.249,3.28,3.561a10.054,10.054,0,0,1,.047,2.436c0,1.985-.166,3.979-.187,5.833a8.209,8.209,0,0,0,2.226-4.123l.094-1.031a.46.46,0,0,1,.328-.117c.442.239.741,1.027,1.007,1.452a9.252,9.252,0,0,1,1.382,6.794l-.492,2.3-.4,1.1a16.574,16.574,0,0,1,3.139,1.921c.349.245.876.536,1.007.984a3.367,3.367,0,0,1-.281,1.734c-.419,1.474-.831,2.882-1.359,4.217a69.123,69.123,0,0,1-5.576,11.549c-.627,1-1.313,1.865-1.991,2.788a5.217,5.217,0,0,1-.89,1.124l-.141-.023a.247.247,0,0,1-.094-.117,6.868,6.868,0,0,1,1.195-1.8,34.076,34.076,0,0,0,2.507-4.123,11.714,11.714,0,0,1-1.851,1.124c-2.445,1.058-5.435,1.294-8.434,1.851l-3.139.3-4.521.328-1.734.047-1.851.047H26.095l-1.874-.023-1.64-.07-4.334-.328-2.811-.4c-3.119-.685-6.181-1.35-8.6-2.764-.619-.362-1.142-.818-1.71-1.218.142.438.98,1.727.773,2.108l-.094.023c-.344-.066-.467-.477-.632-.726A21.211,21.211,0,0,1,3.84,51.8,47.521,47.521,0,0,1,.7,42.8c-.228-.836-.345-1.713-.539-2.623a2.257,2.257,0,0,1-.141-.961l.586-.867,1.265-2.2a2.859,2.859,0,0,0,.492-.914,4.73,4.73,0,0,1-.632-1.218A7.829,7.829,0,0,1,1.9,27.55c.179-.421.474-1.652.937-1.71l.211.141c.214,1.746,1.4,4.586,2.483,5.412-.234-.915-.49-1.876-.679-2.9-.331-1.8-.172-4.756.515-6A10.723,10.723,0,0,1,8.08,19.632a15.625,15.625,0,0,1,3.28-2.3v.07a25.336,25.336,0,0,0-.914,3.772.57.57,0,0,0,.141.492v.75c0,1.25.637,3.587,1.265,4.123C11.049,18.87,17.9,15.65,22,12.463a11.409,11.409,0,0,0,4.193-6.63,8.721,8.721,0,0,0,.3-3.3C26.357,1.7,26.187.92,26.1.164Z" transform="translate(-0.001)" fill-rule="evenodd" fill="url(#linear-gradient-3)"/>
      </g>
      <g id="Shape_7" data-name="Shape 7" transform="translate(14.597 25.699)">
        <path id="Shape_7-2" data-name="Shape 7" d="M27.849,0c.7.016,1.551,2.319,1.827,2.952a21.9,21.9,0,0,1,1.195,3.912l.094,1.523a6.851,6.851,0,0,1-.094,2.179,33.178,33.178,0,0,1-2.108,6.208c-.212.541-1,3.418-.469,4.123V20.85l1.031-1.827c.666-1.058,1.433-2.084,2.108-3.163a12.5,12.5,0,0,1,1.148-1.874h.07c.741.8.6,2.444.914,3.678a10.71,10.71,0,0,0,2.9,4.99c.307.245.627.7,1.031.82.642-1.742,1.111-1.894,1.721-3.763A16.628,16.628,0,0,0,39.937,16a8.618,8.618,0,0,1,1.476,1.078c1.127,1.61.735,4.96,1.382,7.028A11.3,11.3,0,0,0,45.3,28.323l2.108,1.991c.263.555-.64,2.686-.8,3.115l-1.921,5.318A16.131,16.131,0,0,1,43.1,42.191c-1.371,1.935-4.2,1.952-7.051,2.436l-1.874.141-2.483.094a11.676,11.676,0,0,1-2.811.047H27.474l-3.42-.211-5.412-.374-2.436-.258c-2.721-.507-5.341-.92-7.379-2.108A31.84,31.84,0,0,1,4.891,39.1c-.61-.492-1-1.232-1.593-1.734a3.479,3.479,0,0,1,.234,1.054c-.094.124-.21.1-.328.023L2.314,36.5C1.676,34.89,1.2,33.259.627,31.579c-.18-.532-.832-2.239-.562-2.9.562-.935,1.761-1.7,2.436-2.647,1.117-1.574,1.489-3.49,1.921-5.809l.469-3.678c.092-.455-.024-1.225.515-1.1.329.735.488,1.519.8,2.226A8.677,8.677,0,0,0,10.466,22l.258-1.429c.272-1.242.48-2.4.82-3.537l.4-1.57c.228-.327,2.49-.576,5.413-2.485s4.41-2.725,6.277-5.152a23.279,23.279,0,0,0,2.975-4.9C26.95,2.141,27.242.476,27.849,0Z" transform="translate(-0.001)" fill-rule="evenodd" fill="url(#linear-gradient-4)"/>
      </g>
      <g id="Shape_8" data-name="Shape 8" transform="translate(16.339 52.682)">
        <path id="Shape_8-2" data-name="Shape 8" d="M6.475,0A3.891,3.891,0,0,1,7.88.614l2.343.984c2.39.955,4.945,1.658,7.426,2.554l3.936,1.5,3.983-1.476c2.714-1.036,5.539-1.763,8.153-2.835L35.875.379c.233-.117.6-.42.937-.375C38.137.183,39.86,2.18,40.56,3.052c1.314,1.635,1.727,2.971,2.2,5.48l.211,1.991.164,2.694a13.409,13.409,0,0,1,.07,3.163V17.5l-.258,3.35-.281,2.6a66.025,66.025,0,0,1-1.476,6.817,26.947,26.947,0,0,1-4.99,8.621l-1.991,2.085a19.328,19.328,0,0,1-2.952,2.764c-.959.768-1.871,1.62-2.881,2.343-1.238.884-2.511,1.624-3.865,2.413a9.814,9.814,0,0,1-2.038.961,4.251,4.251,0,0,1-3.256-.726,39.42,39.42,0,0,1-6.372-4.287c-.829-.651-1.55-1.4-2.366-2.062l-.961-.96a11.508,11.508,0,0,1-1.663-1.71C7.3,39.02,6.641,38.392,6.1,37.674a25.676,25.676,0,0,1-4.146-7.848,64.078,64.078,0,0,1-1.5-7.614l-.281-3L.079,16.637A16.044,16.044,0,0,1,.173,12.8l.023-.89L.548,8.344A15.608,15.608,0,0,1,1.474,5.2,10.778,10.778,0,0,1,5.327.4,8.592,8.592,0,0,1,6.475,0Z" transform="translate(0 0)" fill="#ffaf86" fill-rule="evenodd"/>
      </g>
      <g id="Shape_9" data-name="Shape 9" transform="translate(5.074 17.757)" opacity="0.366">
        <path id="Shape_9-2" data-name="Shape 9" d="M32.68,85.66a2.805,2.805,0,0,1-1.278-.506l-.073-.045a30.042,30.042,0,0,1-3.336-2.454h0c-.211-.171-.429-.347-.646-.521a11.424,11.424,0,0,1-1.04-.988,10.665,10.665,0,0,0-1.092-1.027l-.274-.183-2.467-1.644a31.453,31.453,0,0,1-3.31-2.792,26.112,26.112,0,0,1-2.852-3.252c-.594-.81-1.057-1.481-1.456-2.113a14.157,14.157,0,0,1-1.215-2.291,1.409,1.409,0,0,1-.108-.606.924.924,0,0,1,.157-.466.953.953,0,0,1,.38-.32,1.212,1.212,0,0,1,.518-.112,1.471,1.471,0,0,1,.717.193v-.047l-.023-.047s-.153-.276-.284-.582a2.988,2.988,0,0,1-.16-.459.485.485,0,0,1,0-.333A.136.136,0,0,1,14.964,65a.456.456,0,0,1,.153.033.737.737,0,0,1,.334.371,1.6,1.6,0,0,0,.134.214L15.1,64.377l-.707-1.8a28.88,28.88,0,0,1-.918-2.8c-.243-.882-.473-1.837-.721-3.006a15.789,15.789,0,0,1-.253-2.129c-.041-.552-.083-1.122-.168-1.69q-.035-1.452-.07-2.9a21.224,21.224,0,0,1,.793-6.1,15.459,15.459,0,0,1,2.253-4.6A15.862,15.862,0,0,1,16.6,37.671a7.137,7.137,0,0,1,1.661-1.312c.044,0,.083,0,.117,0,.256,0,.376.064.445.238.031.113-.037.314-.206.616-.143.254-.326.524-.474.741-.08.117-.149.218-.187.283-.19.318-.385.637-.574.945a26.015,26.015,0,0,0-1.862,3.412,20.969,20.969,0,0,0-1.242,7.354,30.981,30.981,0,0,0,.773,7.827,44.94,44.94,0,0,0,2.108,6.185l.122.3c.466,1.133.947,2.305,1.452,3.418a31.7,31.7,0,0,0,1.659,3.22,41.854,41.854,0,0,0,2.928,4.17c.135.174.271.351.415.537a17.619,17.619,0,0,0,3.287,3.562c.761.546,1.475,1.148,2.167,1.731h0c.377.318.766.647,1.159.962a10.409,10.409,0,0,1,.865.811h0a8.525,8.525,0,0,0,1.1.992,5.071,5.071,0,0,1,.673.556,1.237,1.237,0,0,1,.434.793.643.643,0,0,1-.31.525A.715.715,0,0,1,32.68,85.66ZM3.334,61.214h0a2.97,2.97,0,0,0-.309-.247,2.1,2.1,0,0,1-.417-.362,5.111,5.111,0,0,1-.614-1.191h0c-.052-.125-.1-.255-.159-.377-.12-.274-.248-.553-.371-.822A17.687,17.687,0,0,1,.078,54.4a5.934,5.934,0,0,1-.025-1.746,3.372,3.372,0,0,1,.424-1.463.964.964,0,0,1,.51-.324c.061-.023.124-.046.193-.074a1.111,1.111,0,0,1,.556.195.945.945,0,0,1,.307.4,3.791,3.791,0,0,1,.2,1.187c.019.262.039.533.082.8.109.673.191,1.352.27,2.009.119.992.232,1.929.433,2.864.023.109.054.241.086.38a8.421,8.421,0,0,1,.336,2.571l-.059.012-.059.012Zm58.637-1.007h0a.127.127,0,0,1-.088-.062c-.229-.35.162-2.038.229-2.281.195-.707.357-1.462.514-2.192.1-.444.186-.864.283-1.275.065-.277.116-.556.165-.826a4.382,4.382,0,0,1,.655-1.938,1.115,1.115,0,0,1,.542-.346c.059-.023.12-.047.184-.075a.868.868,0,0,1,.755.357,1.682,1.682,0,0,1,.23,1.029,3.866,3.866,0,0,1-.212,1.1,17.435,17.435,0,0,1-1.042,2.248c-.263.5-.534,1.022-.762,1.547-.092.211-.177.424-.26.63a5.709,5.709,0,0,1-1.193,2.087ZM10.3,48.142c-.327,0-.491-.344-.611-.594-.028-.058-.053-.112-.078-.155a13.878,13.878,0,0,1-.981-2.421c-.077-.229-.156-.466-.237-.7-.587-1.673-1.131-3.527-1.71-5.833-.032-.125-.069-.259-.108-.4h0a5.207,5.207,0,0,1-.267-2.34,6.478,6.478,0,0,1,.875-1.64,6.264,6.264,0,0,1,1.14-1.382L8.3,32.633a3.451,3.451,0,0,1-1.57-1.874,4.246,4.246,0,0,1-.113-1.3,11.2,11.2,0,0,1,.183-1.58,6.784,6.784,0,0,1,.774-2.365.918.918,0,0,1,.434-.269c.064-.025.131-.051.2-.083h.008a.937.937,0,0,1,.767.32,1.5,1.5,0,0,1,.186,1.25c-.036.176-.088.389-.148.636a7.62,7.62,0,0,0-.344,2.855l.164.82a1.711,1.711,0,0,1-.015.468,1.657,1.657,0,0,0-.009.516,3.437,3.437,0,0,0,.091.358,1.66,1.66,0,0,1,.073.884,8.5,8.5,0,0,1-.4,1.348,8.077,8.077,0,0,0-.394,1.323,2.937,2.937,0,0,0,.01.97,9.385,9.385,0,0,0,.209.934c.041.156.079.3.109.439.065.293.129.587.192.872l0,.014c.316,1.444.614,2.808,1.023,4.174l.469,1.8.469,1.8a2.521,2.521,0,0,1,.1.694.651.651,0,0,1-.077.3.386.386,0,0,1-.234.178.556.556,0,0,1-.155.023Zm.858-19.4h0l-.14-.094a5.743,5.743,0,0,1-.131-1.723,8.871,8.871,0,0,0-.057-1.51,9.949,9.949,0,0,1,.07-2.952l.023-.82A3.858,3.858,0,0,1,11.6,20.48c.1-.14.2-.273.288-.4s.182-.28.28-.434h0a9.3,9.3,0,0,1,1.875-2.353,1.2,1.2,0,0,1,.407-.163,1.775,1.775,0,0,0,.343-.118h.035a.764.764,0,0,1,.691.353,1.025,1.025,0,0,1,.137.567,1.5,1.5,0,0,1-.16.627,4.018,4.018,0,0,1-.54.761c-.086.1-.175.209-.256.317-.517.682-1.018,1.355-1.476,2.085l-.469.773-.122.882-.089.641c-.073.368-.136.763-.2,1.181-.1.636-.207,1.294-.356,1.9a5.4,5.4,0,0,1-.613,1.6l-.211.047Zm6.147-4.167a.339.339,0,0,1-.173-.05,2.936,2.936,0,0,1-.032-1.051,5.8,5.8,0,0,1,.22-.987c.332-1.061.753-2.078,1.124-2.975.063-.153.125-.311.185-.465h0a6.33,6.33,0,0,1,.8-1.6A.767.767,0,0,1,19.3,16.8c.2-.705,1.405-1.263,2.126-1.6.135-.062.251-.116.34-.161.481-.244.966-.482,1.435-.712a33.864,33.864,0,0,0,4.344-2.4,12.468,12.468,0,0,0,1.839-1.527,9.838,9.838,0,0,0,1.5-1.949A10.411,10.411,0,0,0,31.9,5.966a27.534,27.534,0,0,0,.6-2.92,5.732,5.732,0,0,0,.023-1.757l-.1-.5L32.313.211a.305.305,0,0,1,.166-.168c.023-.013.046-.027.068-.042a1.006,1.006,0,0,1,.818.42,3.435,3.435,0,0,1,.429.835v0l.041.1a4.749,4.749,0,0,1,.259,1.726,14.127,14.127,0,0,1-.185,2.167,20.814,20.814,0,0,1-.439,2.1,11.175,11.175,0,0,1-.5,1.526,9.137,9.137,0,0,1-.549,1.056,9.587,9.587,0,0,1-.66.951,11.565,11.565,0,0,1-1.591,1.64,26.281,26.281,0,0,1-3.852,2.607l-2.962,1.419-1.489.713-.211.375-.843,1.195A25.26,25.26,0,0,0,19.4,21.364c-.349.685-.711,1.393-1.115,2.063-.029.047-.064.113-.1.188h0c-.193.36-.516.962-.871.962ZM31.376,1.452h0l-.047-.023.012-.047.012-.047.164-.164.047.094-.187.187Z" transform="translate(-0.001)" fill="#fff"/>
      </g>
      <g id="Shape_11" data-name="Shape 11" transform="translate(10.633 61.632)">
        <path id="Shape_11-2" data-name="Shape 11" d="M19.162.027c.659-.006.833.571,1.124.937l.89.773a10.641,10.641,0,0,0,4.217,1.687l1.452.094.984.023,1.757-.164a11.491,11.491,0,0,0,3.7-1.476l1.1-.914c.227-.283.485-.858.867-.96a3.023,3.023,0,0,1,1.265.187c1.092.247,2.137.425,3.139.726A113.972,113.972,0,0,1,50.483,4.783,23.378,23.378,0,0,1,53.81,6.305c.327.2.742.207.867.609a12.222,12.222,0,0,1-.492,3.256c-.716,3.065-1.277,6.133-2.694,8.5a11.078,11.078,0,0,1-7.239,5.13c-1.056.27-2.191.324-3.327.515l-1.359.07a15.527,15.527,0,0,1-3.655.07,8.3,8.3,0,0,1-1.734-.141c-.44-.192-.929-1.279-1.242-1.687a7.32,7.32,0,0,0-4.592-2.9,3.244,3.244,0,0,0-1.171-.141,7.331,7.331,0,0,0-4.943,2.483,17.054,17.054,0,0,1-1.71,2.249,17.228,17.228,0,0,1-4.638.117L12.72,24.2c-2.819-.545-4.857-1.01-6.77-2.413-3.181-2.333-4.16-6.39-5.294-10.8L.046,7.711A1.143,1.143,0,0,1,.28,6.563l.492-.187A41.452,41.452,0,0,1,5.223,4.384C8.171,3.212,11.182,2.07,14.336,1.1L17.452.332Z" transform="translate(0 0)" fill-rule="evenodd" fill="url(#linear-gradient-5)"/>
      </g>
      <g id="Group_27" data-name="Group 27" transform="translate(13.615 64.338)" opacity="0.32">
        <rect id="Rectangle_53" data-name="Rectangle 53" width="49.743" height="0.415" transform="translate(0 5.613)" fill="#fff"/>
        <rect id="Rectangle_54" data-name="Rectangle 54" width="49.743" height="0.415" transform="translate(0 10.372)" fill="#fff"/>
        <rect id="Rectangle_55" data-name="Rectangle 55" width="49.743" height="0.415" transform="translate(0 15.131)" fill="#fff"/>
        <rect id="Rectangle_56" data-name="Rectangle 56" width="0.415" height="20.301" transform="translate(4.087 0.459)" fill="#fff"/>
        <rect id="Rectangle_57" data-name="Rectangle 57" width="0.415" height="20.76" transform="translate(8.847)" fill="#fff"/>
        <rect id="Rectangle_58" data-name="Rectangle 58" width="0.415" height="20.76" transform="translate(13.606)" fill="#fff"/>
        <rect id="Rectangle_59" data-name="Rectangle 59" width="0.415" height="20.76" transform="translate(18.366)" fill="#fff"/>
        <rect id="Rectangle_60" data-name="Rectangle 60" width="0.415" height="17.366" transform="translate(23.125)" fill="#fff"/>
        <rect id="Rectangle_61" data-name="Rectangle 61" width="0.415" height="18.14" transform="translate(27.885)" fill="#fff"/>
        <rect id="Rectangle_62" data-name="Rectangle 62" width="0.415" height="20.76" transform="translate(32.644)" fill="#fff"/>
        <rect id="Rectangle_63" data-name="Rectangle 63" width="0.415" height="20.76" transform="translate(37.404)" fill="#fff"/>
        <rect id="Rectangle_64" data-name="Rectangle 64" width="0.415" height="20.76" transform="translate(42.163)" fill="#fff"/>
        <rect id="Rectangle_65" data-name="Rectangle 65" width="0.415" height="18.943" transform="translate(46.923 1.817)" fill="#fff"/>
      </g>
      <g id="Group_26" data-name="Group 26" transform="translate(18.993 59.917)">
        <path id="Path_75" data-name="Path 75" d="M0,0H2.679V10.3H0Z" transform="translate(7.102 16.542)" fill="#fff"/>
        <path id="Path_74" data-name="Path 74" d="M0,0H2.679V9.124H0Z" transform="translate(11.862 14.441)" fill="#fff"/>
        <rect id="Rectangle_48" data-name="Rectangle 48" width="2.679" height="4.505" transform="translate(16.622 16.134)" fill="#fff"/>
        <path id="Path_73" data-name="Path 73" d="M0,0H2.679V6.465H0Z" transform="translate(21.382 15.021)" fill="#fff"/>
        <path id="Path_72" data-name="Path 72" d="M0,0H2.679V14.956H0Z" transform="translate(26.162 11.883)" fill="#fff"/>
        <rect id="Rectangle_51" data-name="Rectangle 51" width="2.679" height="18.023" transform="translate(30.922 8.815)" fill="#fff"/>
        <path id="Path_77" data-name="Path 77" d="M0,0H2.679V7.925H0Z" transform="translate(2.322 18.913)" fill="#fff"/>
        <path id="Union_8" data-name="Union 8" d="M0,18.78,12.539,8.928,17,11.734,26.74,2.49,25.659,1.331,31.442,0,29.711,5.676,28.621,4.508,17.292,15.177,12.715,12.3,1.7,20.948Z" transform="translate(4.712 0) rotate(13)" fill="#031568"/>
      </g>
      <g id="Shape_10" data-name="Shape 10" transform="translate(4.077 16.164)" opacity="0.223" style="mix-blend-mode: color-burn;isolation: isolate">
        <path id="Shape_10-2" data-name="Shape 10" d="M35.764,86.1a.5.5,0,0,1-.18-.032l-.06-.06-.057-.057c-.058-.318.23-.647.44-.887.045-.052.088-.1.123-.144a14.767,14.767,0,0,1,1.688-1.7c.322-.291.654-.592.959-.9l2.512-2.536,2.36-2.383a12.012,12.012,0,0,1,1.037-1.084,12.109,12.109,0,0,0,1.047-1.095A13.079,13.079,0,0,1,46.8,74.018a8.962,8.962,0,0,0,1.627-1.864,24.024,24.024,0,0,1-5.227.666,12.47,12.47,0,0,1-2.293-.2c-.175-.033-.351-.059-.521-.085A3.674,3.674,0,0,1,39,72.154a3.225,3.225,0,0,1-1-1.269h0a7.026,7.026,0,0,0-.406-.675,5.5,5.5,0,0,0-1.379-1.324,4.881,4.881,0,0,0-1.9-.785,2.5,2.5,0,0,0-.409-.034,3.463,3.463,0,0,0-2.268,1.008A8.609,8.609,0,0,0,30.2,70.8c-.08.121-.155.255-.228.385h0c-.269.48-.548.976-1.154,1.09l-2.085.047h-.094a33.286,33.286,0,0,1-3.518-.171,17.656,17.656,0,0,1-3.158-.6,11.1,11.1,0,0,1-1.295-.482,3.4,3.4,0,0,1-.627-.354c-.173-.132-.251-.253-.233-.358l.048-.048.013-.013.032-.032a.875.875,0,0,1,.213-.019,15.769,15.769,0,0,1,2.384.347h0l1.148.117,1.148.117.532.011.593.012a7.276,7.276,0,0,0,1.1.073,8.961,8.961,0,0,0,1.361-.1c.219-.036.428-.05.631-.063a3.242,3.242,0,0,0,.915-.148,8.221,8.221,0,0,1,1.649-2.361,7.741,7.741,0,0,1,2.286-1.738l.286-.1.242-.081.059-.019.469-.156.679-.094h.1a6.47,6.47,0,0,1,1.631.211,6.851,6.851,0,0,1,1.437.556,7.009,7.009,0,0,1,1.2.788,6.162,6.162,0,0,1,.9.906c.091.113.227.328.385.577h0c.18.284.384.606.578.869.225.3.393.467.513.5a11.379,11.379,0,0,0,2.829.32,20.311,20.311,0,0,0,3.4-.311,25.641,25.641,0,0,0,2.959-.689l.9-.275,1.165-.358L52,69.106l.02,0,.359-.042a2.483,2.483,0,0,0,.276-.089,1.841,1.841,0,0,1,.61-.145.76.76,0,0,1,.192.024c.281.073.429.209.44.4a1.078,1.078,0,0,1-.339.672,1.9,1.9,0,0,1-.594.448,1.069,1.069,0,0,1-.105.7.777.777,0,0,1-.527.359l0-.016-.068-.475-.177.078-.106.047-.3.133-.035.375-.01.109-.025.265a2.8,2.8,0,0,1-.49.753h0c-.08.1-.163.2-.236.3-.434.606-.9,1.189-1.342,1.753l-.392.5c-.606.771-1.274,1.54-1.987,2.284-.668.7-1.4,1.4-2.177,2.091A55.34,55.34,0,0,1,40.2,83.375L38.406,84.57l-.252.168-1.259.84c-.049.028-.11.067-.181.113A2.072,2.072,0,0,1,35.764,86.1ZM7.291,67.444a6.615,6.615,0,0,1-2.01-.293,3.981,3.981,0,0,1-.809-.359,2.48,2.48,0,0,1-.607-.5,3.189,3.189,0,0,1-.4-.614,1.613,1.613,0,0,1-.206-.811.522.522,0,0,1,.206-.379,1.683,1.683,0,0,1,.736.312,2.564,2.564,0,0,0,.412.227,4.6,4.6,0,0,0,1.176.233c.183.021.372.042.558.072a6.1,6.1,0,0,0,.936.066,7.03,7.03,0,0,0,1.149-.09c.071-.012.147-.027.228-.044a4.038,4.038,0,0,1,.765-.1,1.13,1.13,0,0,1,.436.075,1.108,1.108,0,0,1,.5.437.953.953,0,0,1,.11.758.894.894,0,0,1-.521.624,3.383,3.383,0,0,1-.9.2c-.131.018-.267.038-.405.061a7.976,7.976,0,0,1-1.353.116Zm52.681-.159a5.439,5.439,0,0,1-1.349-.148,1.352,1.352,0,0,1-.854-.512.95.95,0,0,1-.084-.8,1.043,1.043,0,0,1,.553-.634,1.379,1.379,0,0,1,.539-.091,5.438,5.438,0,0,1,.888.1h.007l.206.034a4.671,4.671,0,0,0,.723.052,7.169,7.169,0,0,0,1.023-.078,5.913,5.913,0,0,0,.854-.185,5.3,5.3,0,0,0,2.236-1.754,11.134,11.134,0,0,1,.856-.893l.117.07a1.784,1.784,0,0,1-.222.757c-.045.1-.092.2-.129.3a6.167,6.167,0,0,1-1.4,2.36,4.3,4.3,0,0,1-1.072.776,5.7,5.7,0,0,1-1.421.5,7.292,7.292,0,0,1-1.476.145Zm7.5-15.606A35.509,35.509,0,0,0,63.7,49.173a5.539,5.539,0,0,0-.8-.349,2.965,2.965,0,0,1-1.351-.776.942.942,0,0,1-.242-.78.811.811,0,0,1,.345-.441,3.686,3.686,0,0,1,.6-.326h.062a3.14,3.14,0,0,1,1.561.48l.2.107.181.092A7.984,7.984,0,0,1,67.42,49.5a2.542,2.542,0,0,1,.352,1.026,1.78,1.78,0,0,1-.165,1.13l-.141.023ZM.24,51.472a.339.339,0,0,1-.054,0,.57.57,0,0,1-.181-.513,2.336,2.336,0,0,1,.183-.706,6.941,6.941,0,0,1,.584-1.1,4.008,4.008,0,0,1,.881-.948,6.209,6.209,0,0,1,1.164-.711A13.8,13.8,0,0,1,5.6,46.572l.87-.145.14-.023.445-.074.371-.062h.02a1.38,1.38,0,0,1,.78.224,1.056,1.056,0,0,1,.414.537.9.9,0,0,1,0,.57,1.074,1.074,0,0,1-.4.52,5.619,5.619,0,0,1-1.848.447,9.693,9.693,0,0,0-1.151.209A13.606,13.606,0,0,0,1.912,50.4l-.016.01a4.914,4.914,0,0,0-.431.327C1.064,51.067.563,51.472.24,51.472ZM57.456,50.4a.661.661,0,0,1-.554-.266,1.024,1.024,0,0,1-.159-.96,3.244,3.244,0,0,1,.451-.843c.056-.084.109-.162.153-.235l.2-.433.129-.281.07-.152c.741-1.455,1.332-2.972,1.957-4.579.117-.3.238-.612.362-.926.08-.2.172-.413.269-.636h0a7.237,7.237,0,0,0,.644-1.941l-.82-.96-.82-.96L58.284,36.1a3.823,3.823,0,0,0-.428-.425,2.135,2.135,0,0,1-.72-.934,1.144,1.144,0,0,1,.141-.867,1.967,1.967,0,0,0,.117-.281l.258-2.2.258-2.741c.08-.469.145-1.016.177-1.5a7.462,7.462,0,0,0-.036-1.616l-.141-1.007a.945.945,0,0,0-.119-.248.738.738,0,0,1-.139-.407.519.519,0,0,1,.231-.24l.027-.018a1.1,1.1,0,0,1,.534.134,1.35,1.35,0,0,1,.395.34,3.2,3.2,0,0,1,.477.931,6.5,6.5,0,0,1,.321,1.666,12.549,12.549,0,0,1-.015,1.85A25.647,25.647,0,0,1,59.08,32l-.149.831-.015.083-.036.2-.128.712a9.083,9.083,0,0,1,1.4,1.243c.462.49.9,1.02,1.223,1.427l.185.2.354.385A.245.245,0,0,0,62,37.1a.464.464,0,0,0,.067-.006h0a.4.4,0,0,1,.057-.006c.038,0,.084.011.133.089a.4.4,0,0,1,.09.258.758.758,0,0,0,.051.233l.562.632a2.774,2.774,0,0,1,.373,1.218A4.466,4.466,0,0,1,63.273,41a5.934,5.934,0,0,1-.427,1.105c-.121.261-.246.53-.346.816-.046.133-.088.293-.133.462h0a4.531,4.531,0,0,1-.326.951.822.822,0,0,1-.665.507l-.068-.034h0c-.187-.093-.322-.159-.351-.433l-.047.023a10.031,10.031,0,0,1-.814,2.011c-.136.276-.264.537-.38.8l-.64,1.392-.1.223-.181.393-.294.64a1.188,1.188,0,0,1-.425.371,1.3,1.3,0,0,1-.614.175Zm-2.661-.022a.945.945,0,0,1-.235-.033,4.01,4.01,0,0,1-.5-1.24,6.81,6.81,0,0,0-.277-.844l-.347-.62-.1-.176-.138-.4-.26-.75-.358-1.031-.04-.117a15.612,15.612,0,0,0-1.5-2.877,8.432,8.432,0,0,0-2.11-2.254l-.5.16-.672.215-.847.288-.138.047-1.217.414c-.788.3-1.568.6-2.322.889h0c-1.713.652-3.33,1.268-4.984,1.945-.154.063-.348.149-.572.248h0c-.507.224-1.137.5-1.782.732a5.76,5.76,0,0,1-1.821.4,1.926,1.926,0,0,1-.3-.022,9.5,9.5,0,0,1-1.488-.364c-.459-.151-.9-.326-1.325-.5h0c-.16-.064-.325-.13-.489-.194-1.963-.763-3.833-1.536-5.716-2.366a26.372,26.372,0,0,1-4.92-2.788c-.04-.029-.1-.07-.17-.116h0a6.461,6.461,0,0,1-.737-.55c-.278-.254-.39-.463-.333-.621l.164-.164h.03a2.223,2.223,0,0,1,.987.269h0c.1.044.194.09.294.129.855.334,1.665.685,2.448,1.023l.013.006.655.283c1.467.63,2.9,1.164,4.426,1.73.734.273,1.492.555,2.25.847.23.089.457.179.7.275a16,16,0,0,0,3.262,1.037,1.03,1.03,0,0,0,.169.013,5.152,5.152,0,0,0,1.593-.4c.6-.226,1.211-.5,1.656-.7h0c.179-.081.333-.15.445-.2,2.661-1.124,5.435-2.189,8.48-3.256.1-.036.228-.083.374-.137a9.86,9.86,0,0,1,2.955-.76,1.562,1.562,0,0,1,.677.128.754.754,0,0,1,.4.442.588.588,0,0,1-.017.359.535.535,0,0,0-.03.2,2.864,2.864,0,0,1,.881.622,8.542,8.542,0,0,1,.712.807,17.6,17.6,0,0,1,3.022,6,3.553,3.553,0,0,1,.094,1.037,5.375,5.375,0,0,0,.046.884,6.9,6.9,0,0,1,.1,1.009,1.343,1.343,0,0,1-.207.869.487.487,0,0,1-.389.169Zm-.423-21.7h0l-.117-.023c-.179-.1-.183-.344-.187-.6a2.2,2.2,0,0,0-.024-.357c-.057-.31-.107-.63-.16-.97h0c-.088-.567-.179-1.153-.309-1.7a26.683,26.683,0,0,0-.971-3.172,28,28,0,0,0-1.277-2.9,8.811,8.811,0,0,0-.556-.842h0a5.1,5.1,0,0,1-.849-1.453l.051-.051.09-.09a1.893,1.893,0,0,1,1.213.509,7.427,7.427,0,0,1,.948,1.031,7.1,7.1,0,0,0,.579.663h.023c-.006-.279.076-.326.224-.412l.057-.033c.394.065.7.362.928.909a7.955,7.955,0,0,1,.4,1.535c.025.13.049.252.073.367a3.168,3.168,0,0,1,.08.8,1.069,1.069,0,0,1-.22.651,19.506,19.506,0,0,1,.378,2.419,8,8,0,0,1-.12,2.547,2.639,2.639,0,0,0-.06.482,1.031,1.031,0,0,1-.2.689Zm-6.418-4.118c-.362,0-.837-.379-1.412-1.127a16.4,16.4,0,0,1-1.049-1.6,20.04,20.04,0,0,1-.943-1.8c-.282-.612-.546-1.264-.785-1.939a32.259,32.259,0,0,1-1.176-4.315,9.733,9.733,0,0,1-.147-1.608,12.632,12.632,0,0,0-.111-1.461V9.558a5.466,5.466,0,0,0-1.085-1.343c-.218-.226-.425-.439-.555-.6a19.7,19.7,0,0,0-2.928-2.928c-.353-.284-.69-.606-1.016-.918-.349-.333-.709-.677-1.093-.98l-.167-.13-.005,0a15.563,15.563,0,0,1-1.408-1.193C33.5.887,33.239.443,33.312.141L33.593,0a5.783,5.783,0,0,1,2.547,1.037l0,0c.114.071.223.137.331.2a19.221,19.221,0,0,1,2.507,1.8c.7.588,1.428,1.27,2.225,2.086l.832.9.832.9a.8.8,0,0,1,.358-.1.466.466,0,0,1,.321.121c.034.03.317.667.548,1.2.248.574.51,1.2.529,1.28a2.154,2.154,0,0,1,.029.84,1.065,1.065,0,0,1-.123.355.472.472,0,0,1-.234.211,23.184,23.184,0,0,0,.558,5.518,20.33,20.33,0,0,0,1.62,4.579l.461.957.16.331.621,1.288c.024.046.055.1.089.157.147.249.347.59.216.874a.494.494,0,0,1-.07,0Z" transform="translate(-0.004)" fill="#031568"/>
      </g>
      <path id="Subtraction_1" data-name="Subtraction 1" d="M37.248,24.54a8.96,8.96,0,0,1-1.339-.08,3.132,3.132,0,0,0-.512-.035c-.085,0-.168,0-.249,0h0c-.08,0-.162,0-.242,0a2.825,2.825,0,0,1-.381-.021.986.986,0,0,1-.8-.537c-.152-.211-.3-.467-.438-.694h0a6.164,6.164,0,0,0-.346-.547c-.142-.185-.287-.362-.431-.525s-.3-.331-.457-.48-.324-.3-.491-.434-.35-.268-.532-.388a7.772,7.772,0,0,0-2.68-1.078l-.167-.038h0c-.113-.027-.242-.057-.373-.08a2.332,2.332,0,0,0-.4-.039,1.423,1.423,0,0,0-.228.017c-.282.046-.554.1-.807.153s-.512.12-.747.188-.473.147-.69.229-.436.176-.636.274a6.46,6.46,0,0,0-.585.324,5.909,5.909,0,0,0-.537.378,5.792,5.792,0,0,0-.491.437,6.091,6.091,0,0,0-.449.5c-.1.12-.268.371-.467.66h0c-.224.326-.477.7-.705,1a2.206,2.206,0,0,1-.537.587,1.789,1.789,0,0,1-.4.1c-.169.026-.378.049-.623.067-.446.033-.994.05-1.583.05a15.923,15.923,0,0,1-2.031-.1l-2.355-.174-.808-.06c-.644-.124-1.33-.26-1.978-.409-.326-.075-.619-.148-.9-.223-.3-.082-.58-.164-.848-.252a11.753,11.753,0,0,1-1.577-.636c-.255-.126-.5-.263-.744-.408s-.49-.312-.725-.484c-.191-.14-.379-.29-.558-.446s-.348-.315-.512-.483-.319-.338-.469-.518-.292-.36-.43-.55-.267-.381-.394-.581-.244-.4-.361-.611-.224-.418-.331-.638-.205-.435-.3-.663c-.187-.434-.364-.89-.541-1.4-.158-.452-.312-.934-.472-1.475-.3-1.006-.562-2.037-.843-3.127h0l-.019-.073L.652,10.99.346,9.339l-.1-.523L.043,7.71A2.15,2.15,0,0,1,0,7.365,1.553,1.553,0,0,1,.017,7.04a.928.928,0,0,1,.09-.277.562.562,0,0,1,.171-.2l.055-.021.436-.166C1.4,6.031,2.108,5.689,2.93,5.329c.763-.334,1.552-.652,2.29-.946C6.953,3.694,8.377,3.148,9.7,2.666c1.652-.6,3.167-1.113,4.634-1.562L16,.69l.555-.138.894-.222.7-.125L18.3.178l.635-.113.22-.039h.009a.98.98,0,0,1,.176.015.809.809,0,0,1,.4.2,2.064,2.064,0,0,1,.352.453h0a3.212,3.212,0,0,0,.188.274l.158.137.287.249.445.386a7.618,7.618,0,0,0,.909.569A9.534,9.534,0,0,0,23.1,2.77c.346.135.719.26,1.107.37.373.105.772.2,1.185.284l.14.009.6.039.154.01.558.036.262.006.179,0,.543.013,1.118-.1L29.29,3.4l.293-.027c.349-.077.693-.167,1.022-.267s.651-.213.959-.335.608-.258.894-.4.564-.3.827-.47l.112-.093.216-.179.773-.641c.061-.076.124-.174.191-.277a3.709,3.709,0,0,1,.3-.419.79.79,0,0,1,.374-.264A.89.89,0,0,1,35.482,0a3.125,3.125,0,0,1,.792.15c.089.025.173.049.244.065.336.076.671.146,1,.214h0c.745.156,1.449.3,2.141.512.945.284,1.89.579,2.809.88s1.828.611,2.724.93,1.781.646,2.663.985,1.752.686,2.627,1.046c.2.081.394.161.586.239h0c.469.19.955.386,1.416.595.248.112.471.219.679.327.234.12.445.239.644.362a2.02,2.02,0,0,0,.319.149h0c.237.094.461.183.547.46a4.084,4.084,0,0,1-.105,1.478c-.113.624-.268,1.28-.352,1.633h0l-.034.146c-.1.407-.189.821-.28,1.221V11.4c-.147.647-.3,1.317-.457,1.962-.177.723-.345,1.343-.514,1.9-.2.662-.408,1.246-.631,1.785-.12.292-.248.573-.379.838s-.282.544-.431.794c-.2.327-.405.643-.624.938a10.637,10.637,0,0,1-.7.849,10.166,10.166,0,0,1-1.631,1.44,10.84,10.84,0,0,1-.939.594c-.325.184-.67.357-1.025.514s-.729.3-1.115.435-.79.252-1.207.359c-.3.075-.625.141-1.007.2-.342.053-.7.1-1.038.138h0c-.419.051-.852.1-1.28.177l-.109.006-.7.036-.546.028c-.265.042-.635.08-1.042.107C38.1,24.525,37.657,24.54,37.248,24.54Zm-9.779-6.656a4.745,4.745,0,0,1,.875.09c.281.053.549.121.786.182h0l.193.049c.284.071.563.149.831.234s.518.173.765.27.479.2.71.3.447.218.666.339a13.477,13.477,0,0,1,1.237.773c.363.253.748.545,1.179.891a8.878,8.878,0,0,1,.694.725h0c.212.235.431.477.622.671a1.532,1.532,0,0,0,.441.361,1.216,1.216,0,0,0,.349.043,4.6,4.6,0,0,0,.8-.1h0l.209-.038c.513-.084,1.028-.123,1.526-.161.278-.021.565-.043.842-.072.31-.033.577-.071.818-.119l.417-.082.011,0c.929-.182,1.807-.354,2.623-.585a11.01,11.01,0,0,0,1.179-.4c.192-.079.379-.163.555-.251s.363-.191.532-.294c.144-.088.285-.182.421-.281s.265-.2.391-.309a6.771,6.771,0,0,0,.7-.692,7.9,7.9,0,0,0,.6-.784,9.928,9.928,0,0,0,.517-.865,15.486,15.486,0,0,0,.846-1.923c.267-.722.5-1.468.7-2.1a27.313,27.313,0,0,0,.655-2.875h0c.046-.238.093-.485.141-.732.008-.039.016-.081.025-.126h0c.045-.225.1-.5.134-.783a3.281,3.281,0,0,0,.024-.406,1.336,1.336,0,0,0-.043-.347.78.78,0,0,0-.387-.411,3.768,3.768,0,0,0-.593-.25h0c-.085-.03-.165-.059-.238-.088L46.357,6.4c-.4-.154-.809-.3-1.257-.459-.4-.138-.817-.276-1.28-.423-.86-.273-1.749-.535-2.609-.79h0c-.531-.157-1.079-.319-1.621-.483-.093-.028-.242-.079-.43-.143h0c-.323-.11-.765-.26-1.174-.38-.223-.065-.416-.116-.575-.151a2.187,2.187,0,0,0-.434-.061.473.473,0,0,0-.1.009,1.172,1.172,0,0,0-.4.182,3.72,3.72,0,0,0-.343.273h0c-.084.073-.164.142-.244.2a9.455,9.455,0,0,1-1.78,1.1,6.313,6.313,0,0,1-.647.238c-.22.068-.458.131-.708.185s-.493.1-.76.139c-.251.038-.521.071-.8.1-1.11.11-2.317.13-3.455.135h-.276l-.89,0c-.942,0-2.042-.013-3.055-.107a9.2,9.2,0,0,1-2.6-.553c-.27-.11-.532-.232-.778-.362a6.65,6.65,0,0,1-.721-.435,4.892,4.892,0,0,1-.428-.355,4.36,4.36,0,0,0-.646-.507,1.749,1.749,0,0,0-.38-.173,1.477,1.477,0,0,0-.21-.049,1.462,1.462,0,0,0-.226-.017h-.008l-.827.241-.61.178-.166.048-1.935.564c-1.2.375-2.361.75-3.464,1.115-1.174.389-2.318.778-3.4,1.158-.285.1-.636.2-1.007.315h0c-.485.144-1.035.308-1.517.487a4.143,4.143,0,0,0-1.176.6.458.458,0,0,0-.131.2,1.013,1.013,0,0,0-.054.274,2.688,2.688,0,0,0,.044.629c.057.336.1.665.151.983.083.581.162,1.13.295,1.688.116.486.221.91.323,1.3.122.465.24.884.361,1.281A19.226,19.226,0,0,0,5.3,17a12.108,12.108,0,0,0,.569,1.1c.1.176.212.347.321.509s.23.328.348.479.248.306.377.446.269.282.408.411.291.257.441.372.314.229.476.331.345.205.528.3.365.18.56.263a11.835,11.835,0,0,0,1.2.436c.388.12.811.233,1.293.346.385.091.818.184,1.361.293l1.113.129,1.068.124.045.005c.172.029.606.094,1.095.152a13.467,13.467,0,0,0,1.374.106,1.171,1.171,0,0,0,.413-.047l.445-.492c.142-.142.285-.289.423-.431h0c.21-.216.426-.44.647-.652a8.732,8.732,0,0,1,.687-.6,13.432,13.432,0,0,1,1.388-.956,11.051,11.051,0,0,1,1.461-.731A13.086,13.086,0,0,1,25,18.334c.588-.156,1.231-.29,1.963-.411a3.144,3.144,0,0,1,.509-.039Z" transform="translate(10.636 61.633)" fill="url(#linear-gradient-6)"/>
      <g id="Shape_13" data-name="Shape 13" transform="translate(2.117 52.209)">
        <path id="Shape_13-2" data-name="Shape 13" d="M35.826,51.815a.379.379,0,0,1-.092-.01,4.834,4.834,0,0,1-1.416-.757c-.145-.1-.281-.192-.411-.274C32.831,50.1,31.8,49.365,30.8,48.656h0l-.006,0-.706-.5c-2.194-1.55-4.271-3.179-6.278-4.756l-.78-.723-.006-.005-.067-.062-.74-.685-.717-.688-.455-.436-.874-.839-.3-.285c-.411-.51-.856-1.005-1.287-1.484h0a25.518,25.518,0,0,1-1.828-2.193l-.6-.883-.919-1.342-.515-.258-.064-.032-.451-.226L13,32.383l-.063-.046-1.042.235-.217.049-.4.091A9.809,9.809,0,0,1,9.3,32.9a8.327,8.327,0,0,1-1.326-.1l-.437-.044-.031,0L7.4,32.748l-.361-.036c-.572-.211-1.162-1.15-1.593-1.836h0c-.1-.161-.2-.314-.28-.435a2.681,2.681,0,0,1-1.011-.245,2.563,2.563,0,0,1-.745-.541A6.231,6.231,0,0,1,2.4,28.1a19.093,19.093,0,0,1-1.366-3.506A40.127,40.127,0,0,1,.15,20.553,16.709,16.709,0,0,1,0,18.313,7.269,7.269,0,0,1,.2,16.2a4.2,4.2,0,0,1,.848-.962,5.377,5.377,0,0,1,1.026-.795h0a8.268,8.268,0,0,1,.445-2.881,2.442,2.442,0,0,1,.657-.534c.3-.193.693-.411,1.128-.63A11.82,11.82,0,0,1,6.428,9.52l.047.047.155.578L6.7,10.4l.223.832.452-.22.509-.248.049.012.045.011v.023l-.023.045-.025.049-.574.3-.574.3c-.252.11-.526.215-.816.326h0a12.523,12.523,0,0,0-1.513.655,2.828,2.828,0,0,0-1.114.963,5.846,5.846,0,0,0-.611,1.538c-.149.564-.26,1.178-.366,1.772l-.054.3-.147,1.283-.017.146-.094-.07a13.411,13.411,0,0,1-.074-2h0c0-.189,0-.384,0-.575l-.469.421-.469.421A5.71,5.71,0,0,0,.9,18.154a12.487,12.487,0,0,0,.047,1.6L1.2,22.005a22.021,22.021,0,0,0,1.265,4.029c.065.151.125.311.182.467a3.828,3.828,0,0,0,.534,1.081,1.333,1.333,0,0,0,.447.363A1.559,1.559,0,0,0,4.3,28.1v-.023c-.322-.685-.62-1.412-.912-2.222-.255-.707-.5-1.468-.775-2.393l-.026-.089,0-.015a10.157,10.157,0,0,1-.287-1.124,3.666,3.666,0,0,1-.034-1.255l.141-.023.562,1.476.033.087L3.523,23.9c.393.926.827,1.825,1.29,2.675a25.39,25.39,0,0,0,1.521,2.455l.473.646.047.064.7.953c.114,0,.231,0,.346,0a20.324,20.324,0,0,0,3.238-.285c-.239-.494-.523-.988-.8-1.465h0a20.079,20.079,0,0,1-.983-1.86c-.545-1.235-1.008-2.374-1.417-3.482-.46-1.25-.855-2.471-1.207-3.733A21.286,21.286,0,0,1,6.3,17.781c-.048-.277-.1-.564-.152-.858l-.011-.058a2.071,2.071,0,0,1-.013-1.137l7.215-3.092a10.032,10.032,0,0,1,.3-2.536,17.666,17.666,0,0,1,.707-2.2,23.818,23.818,0,0,1,1.092-2.445,15.838,15.838,0,0,1,1.306-2.11,13.169,13.169,0,0,1,3.6-3.34,2.3,2.3,0,0,1,.851.257c.095.043.184.083.273.118l1.418.553L23,.982l1.228.479C25.609,2,27,2.514,28.349,3.009h0c1.164.428,2.367.87,3.567,1.333.236.091.49.194.758.3A15.778,15.778,0,0,0,35.8,5.678l.2-.056.715-.2c.938-.29,1.757-.573,2.577-.89,1.334-.516,2.674-1.006,3.97-1.481h0c1.546-.566,3.146-1.151,4.72-1.775l.654-.262h0c.581-.234,1.181-.476,1.8-.7A2.367,2.367,0,0,0,50.68.207,1.509,1.509,0,0,1,51.293,0a.464.464,0,0,1,.09.009,2.788,2.788,0,0,1,1.088.648c.377.317.736.68,1,.945l.14.141a14.68,14.68,0,0,1,1.374,1.588,15.762,15.762,0,0,1,1.15,1.784,18.561,18.561,0,0,1,.948,1.99c.28.686.538,1.428.768,2.2a17.548,17.548,0,0,1,.419,1.961l.026.148.141,1.265.476.2.953.406,1.166.507.216.094,1.312.57c.343.147.707.283,1.06.415a11.515,11.515,0,0,1,2.056.921,11.2,11.2,0,0,1-.289,2.692c-.191.868-.446,1.677-.672,2.391h0a56.374,56.374,0,0,1-2.179,5.857c-.341.776-.762,1.525-1.169,2.25-.262.467-.533.95-.776,1.428.215.033.434.072.646.11a10.5,10.5,0,0,0,1.908.218c.051,0,.115,0,.182,0,.085,0,.181.005.278.005a1.133,1.133,0,0,0,.594-.1l.754-1,.019-.026.07-.094a26.9,26.9,0,0,0,1.675-2.6,29.408,29.408,0,0,0,1.417-2.855l.609-1.558.609-1.558.051.01.067.013a5.85,5.85,0,0,1-.351,2.483c-.055.181-.109.362-.161.537l0,.005c-.279.933-.543,1.814-.891,2.69L67.432,28.1h.141l.843-.258a6.644,6.644,0,0,0,.745-1.559c.059-.15.11-.279.146-.361a22.408,22.408,0,0,0,1.429-5.529,15.757,15.757,0,0,0,.1-1.907,6.247,6.247,0,0,0-.148-1.794l-.469-.421-.469-.421c0,.173.013.376.024.592a4.541,4.541,0,0,1-.164,2.055l-.047-.023A14.332,14.332,0,0,0,69.1,15.28a7.736,7.736,0,0,0-.527-1.447,2.515,2.515,0,0,0-.721-.938,11.818,11.818,0,0,0-2.24-1.13l-.431-.182c-.1-.043-.208-.085-.322-.13h0a2.885,2.885,0,0,1-1.106-.62l.02-.032h0c.014-.024.014-.024.044-.028l.053-.009.459.224.5.244a4.73,4.73,0,0,1,.469-1.71h.023a17.057,17.057,0,0,1,2.211.908c.7.348,1.577.851,1.748,1.27a4.768,4.768,0,0,1,.242,1.3c.023.238.046.484.086.716l.044.688,0,.038.166.12.045.032.211.152.168.132a8.17,8.17,0,0,1,.812.7,1.9,1.9,0,0,1,.543.86,9.716,9.716,0,0,1,.133,2.146,15.53,15.53,0,0,1-.179,2.141c-.057.321-.11.643-.161.954a19.932,19.932,0,0,1-.519,2.513,29.058,29.058,0,0,1-1.312,3.42l-.086.2v0a5.016,5.016,0,0,1-1.225,1.957,4.17,4.17,0,0,1-1.734.7,5.643,5.643,0,0,1-.791,1.263,3.264,3.264,0,0,1-1.037.986l-.33.033-.139.014-.029,0-.439.044a8.551,8.551,0,0,1-1.3.091,11.075,11.075,0,0,1-2.38-.255l-.541-.126-.177-.041-.168-.039-.427-.1a6.144,6.144,0,0,1-1.4.99l-.192.111-.363.187-.363.187a10,10,0,0,0-.78,1.138c-.162.262-.33.533-.509.783-.478.67-1.012,1.308-1.529,1.925-.261.312-.531.634-.79.956a16.506,16.506,0,0,1-2.39,2.413l-1.112,1.054-1.113,1.054h0c-1.986,1.579-4.04,3.212-6.184,4.732l-.785.559-.008.006c-1.193.852-2.427,1.733-3.729,2.527-.047.029-.112.071-.194.126A4.007,4.007,0,0,1,35.826,51.815ZM19.172,35.148h0a14.933,14.933,0,0,0,1.875,2.573h0c.266.316.542.642.794.964a33.938,33.938,0,0,0,4.35,4.518c1.739,1.527,3.558,2.894,4.95,3.915a40.658,40.658,0,0,0,3.4,2.249l.128.079,0,0a4.206,4.206,0,0,0,1.213.6.166.166,0,0,0,.036,0L36,50.005l1.139-.613a45.969,45.969,0,0,0,3.936-2.647c.9-.66,1.7-1.275,2.457-1.878.855-.683,1.627-1.336,2.359-2,.792-.712,1.536-1.434,2.212-2.144.727-.763,1.4-1.545,2.015-2.322.218-.278.454-.562.681-.837a15.516,15.516,0,0,0,1.755-2.42l-.937.164-.937.164-1.268.095-1.238.093a12.137,12.137,0,0,1-1.8.121,15.849,15.849,0,0,1-2.488-.191c-.252-.042-.534-.06-.806-.078a3.572,3.572,0,0,1-1.49-.3,13.469,13.469,0,0,0-.862-1.886,6.984,6.984,0,0,0-1.2-1.593,5.294,5.294,0,0,0-.775-.625,5.081,5.081,0,0,0-.918-.477,5.646,5.646,0,0,0-1.079-.3,7.154,7.154,0,0,0-1.26-.107h-.042l-.145.026-.181.032-.331.059a6.1,6.1,0,0,0-1.523.586,6.171,6.171,0,0,0-2.483,2.811c-.062.14-.123.287-.181.429h0a7.52,7.52,0,0,1-.521,1.093c-.792.15-1.664.275-2.524.362-.974.1-1.922.148-2.818.148a18.069,18.069,0,0,1-2.857-.205l-.727-.12h0c-.662-.111-1.347-.226-1.99-.3ZM35.9,28.466a5.314,5.314,0,0,1,1.078.112,6.221,6.221,0,0,1,1.148.362,8.467,8.467,0,0,1,2.136,1.393A12.582,12.582,0,0,1,41.99,32.15l.661,1.013.042.064.046.124.128.341.037.1,1-.023,1-.023,2.753-.258,2.753-.258.984-.129.984-.129a14.276,14.276,0,0,0,4.545-1.663A7.448,7.448,0,0,0,58,30.469a8.93,8.93,0,0,0,.949-1.031,11.358,11.358,0,0,0,.82-1.2,14.868,14.868,0,0,0,.7-1.331,22.2,22.2,0,0,0,1.112-2.953c.286-.938.549-1.967.806-3.146.1-.456.242-1.176.359-2.01a17.53,17.53,0,0,0,.18-2.089L60.174,15.5l-.707-.31-2.2-.965L53.4,12.776l-1.993-.749c-1.051-.414-2.3-.893-3.581-1.309a25.292,25.292,0,0,0-3.845-.963,2.884,2.884,0,0,1-.51.624c-.2.19-.412.363-.615.524a11.418,11.418,0,0,1-2.507,1.64,9.894,9.894,0,0,1-2.155.64,13.411,13.411,0,0,1-2.447.222,12.462,12.462,0,0,1-2.125-.176,8.81,8.81,0,0,1-1.917-.546,10.506,10.506,0,0,1-1.514-.795,14.841,14.841,0,0,1-1.344-.962,4.235,4.235,0,0,1-.462-.493,2.664,2.664,0,0,0-.709-.679h0l-.715.167-.69.161-1.329.387-.214.062-.586.171-.847.247c-1.587.5-3.23,1.081-5.022,1.769-1.481.569-3.072,1.216-4.864,1.979l-1.36.589-.243.105-1.536.665c-.131.057-.282.11-.441.166a2.984,2.984,0,0,0-1.035.513l0,.016.162,1.32c.079.446.128.895.174,1.329a14.144,14.144,0,0,0,.224,1.553c.268,1.207.539,2.247.829,3.18a21.074,21.074,0,0,0,1.133,2.935,14.126,14.126,0,0,0,.72,1.315,11.038,11.038,0,0,0,.844,1.181,9.028,9.028,0,0,0,.983,1.022,7.946,7.946,0,0,0,1.138.84,10.312,10.312,0,0,0,2.64,1.087c.99.276,2.1.485,3.076.67l2.975.281a23.2,23.2,0,0,0,2.494.264c.766.043,1.6.064,2.632.064h0a5.489,5.489,0,0,1,1.648-2.421l.015-.016a12.954,12.954,0,0,1,2.321-1.935,6.759,6.759,0,0,1,1.448-.686,5.281,5.281,0,0,1,1.642-.268ZM27.98,7.763h0a8.007,8.007,0,0,0,3.19,2.962,10.313,10.313,0,0,0,2.291.9,10.069,10.069,0,0,0,2.545.331h0a9.27,9.27,0,0,0,3.452-.657,9.747,9.747,0,0,0,2.011-1.136,8.61,8.61,0,0,0,1.644-1.511l.4-.539.258-.351h0a2.428,2.428,0,0,1,.843.187c.1.034.185.066.278.094l1.324.387,1.324.386,1.186.37h0c1.214.377,2.469.768,3.681,1.176,1.356.458,2.522.894,3.564,1.335a7.125,7.125,0,0,0-.326-1.843l0-.008a15.661,15.661,0,0,0-1.1-2.9,16.884,16.884,0,0,0-1.521-2.46c-.081-.111-.161-.222-.245-.341A6.42,6.42,0,0,0,51.5,2.679c-1.363.32-2.8.737-4.386,1.277-1.344.457-2.637.944-4.165,1.534l-1.023.324-.492.155-1.226.388-1.157.356-.062.019-2.061.633a2.818,2.818,0,0,0-.3.123,1.922,1.922,0,0,1-.743.221.715.715,0,0,1-.151-.016l-.594-.2L34.8,7.384l-.915-.3c-.579-.18-1.165-.35-1.731-.515h0c-1.229-.358-2.5-.729-3.7-1.2-1.731-.671-3.566-1.3-5.95-2.038L21.328,3,20.2,2.679,19.57,3.4l-.656.751a17.314,17.314,0,0,0-1.374,2.118,19.817,19.817,0,0,0-1.11,2.4,13.609,13.609,0,0,0-.469,1.449,5.077,5.077,0,0,0-.21,1.573c2.4-.914,5-1.807,8.2-2.811l1.007-.295,1.874-.549c.092-.027.182-.058.269-.088A2.875,2.875,0,0,1,27.98,7.763ZM35.95,42.551a3.576,3.576,0,0,1-.59-.046,13.352,13.352,0,0,1-2.3-.586l-.036-.013L33.01,41.9a11.148,11.148,0,0,1-1.094-.435c-.474-.228-.735-.438-.773-.623l.724.157.681.148,1.4.194.969.134h1.032a14.95,14.95,0,0,0,3.349-.351l1.2-.263.085-.019v.094a9.185,9.185,0,0,1-1.977,1.029,7.768,7.768,0,0,1-2.658.586Zm-.145-4.1h0l-.01-.007a11.271,11.271,0,0,1-1.224-.858,2.15,2.15,0,0,1-.85-1.15,2.289,2.289,0,0,1,.862.425,6.205,6.205,0,0,0,.613.367,1.4,1.4,0,0,0,.612.173A.8.8,0,0,0,35.9,37.4a3.925,3.925,0,0,0,1.476-.609,1.625,1.625,0,0,0,.17-.126.815.815,0,0,1,.462-.226,2.923,2.923,0,0,1-.906,1.2,5.435,5.435,0,0,1-.708.558,1.472,1.472,0,0,1-.588.258Z" transform="translate(0.002 0)" fill="#031568"/>
      </g>
      <g id="Shape_14" data-name="Shape 14" transform="translate(7.727 14.506)">
        <path id="Shape_14-2" data-name="Shape 14" d="M56.575,52.611h0l-.047-.023.047-.219.023-.109a2.6,2.6,0,0,1-.536-.062,2,2,0,0,1-.422-.147,3.667,3.667,0,0,1-.682-.458l-.047-.037V51.6a.51.51,0,0,0-.062.084.25.25,0,0,1-.149.127v-.094c.318-.708.658-1.425.986-2.119.549-1.159,1.116-2.357,1.614-3.574.206-.5.412-1.064.629-1.711.194-.579.38-1.176.559-1.752.251-.807.511-1.641.8-2.464a7.363,7.363,0,0,0-.618-.7,8.493,8.493,0,0,0-.694-.63l-1.71-1.64c-.134-.106-.3-.213-.467-.327h0c-.194-.129-.395-.262-.573-.406a1.851,1.851,0,0,1-.435-.462l.312-1.281.321-1.319.129-.706.049-.267.22-1.205.077-.576.181-1.345a5.711,5.711,0,0,0-.257-1.071c-.115-.341-.254-.666-.375-.944-.029-.066-.057-.133-.087-.2h0c-.079-.188-.161-.383-.257-.563a1.845,1.845,0,0,0-.335-.472,13.369,13.369,0,0,1-.313,1.588c-.079.305-.16.578-.242.811a3.3,3.3,0,0,1-.264.6l-.127.121-.009.008-.356.339c-.287.231-.558.492-.82.745h0a11.848,11.848,0,0,1-.89.8c-.075.059-.175.151-.29.257h0a7.643,7.643,0,0,1-.613.524,2.024,2.024,0,0,1-.317.2.681.681,0,0,1-.285.078l-.04,0a3.731,3.731,0,0,1,.031-1.011c.048-.431.119-.892.162-1.168h0l.018-.116.016-.727,0-.126q.014-.628.028-1.256a8.757,8.757,0,0,0,.082-.884c.013-.3.015-.612.006-.937-.009-.305-.027-.618-.055-.929-.027-.3-.061-.584-.1-.858l-.125-1.437-.062-.718-.6-.717-.04-.048-.182-.219c-.2-.247-.4-.484-.6-.7s-.431-.455-.65-.66-.467-.419-.705-.6a9.212,9.212,0,0,0-.764-.537h-.023a12.365,12.365,0,0,0,.236,1.258,14.133,14.133,0,0,1,.274,1.489,6.016,6.016,0,0,1,.04.783c0,.135-.01.27-.023.4s-.033.273-.059.4a2.884,2.884,0,0,1-.265.725c-.119.24-.26.475-.385.683l0,0c-.043.072-.083.139-.122.2-.137.235-.277.5-.425.778h0c-.231.436-.47.888-.736,1.3a5.526,5.526,0,0,1-.417.571c-.075.088-.15.169-.224.241a2.444,2.444,0,0,1-.236.2l-.094-.023a3.068,3.068,0,0,1-.8-1.142c-.276-.535-.529-1.114-.664-1.424h0L42.73,24.8c-.209-.479-.41-.972-.6-1.467s-.369-1.014-.536-1.53-.328-1.058-.473-1.6-.284-1.1-.408-1.663a7.9,7.9,0,0,1-.129-.8c-.031-.27-.054-.55-.077-.821h0c-.036-.435-.073-.885-.146-1.333A11.166,11.166,0,0,1,40.28,13.9a12.868,12.868,0,0,1,.108-1.68l.058-.734.012-.155.047-.587a2.017,2.017,0,0,0-.339-.536c-.16-.2-.368-.439-.619-.7a14.947,14.947,0,0,0-1.174-1.127c-.278-.224-.54-.482-.794-.731h0a10.338,10.338,0,0,0-.869-.791c-.783-.611-1.521-1.158-2.256-1.672-.389-.272-.782-.539-1.169-.793s-.809-.521-1.213-.768c-.148-.09-.3-.187-.451-.289h0c-.222-.146-.452-.3-.688-.43a4.018,4.018,0,0,0-.735-.335,12.35,12.35,0,0,1,.586,1.944,6.029,6.029,0,0,1,.109.68c.023.221.035.452.036.684a8.192,8.192,0,0,1-.111,1.337,9.565,9.565,0,0,1-.286,1.228,9.152,9.152,0,0,1-.382,1.038c-.09.205-.193.414-.3.621s-.228.406-.356.61a12.646,12.646,0,0,1-.848,1.181c-.3.371-.634.75-1,1.124-.34.351-.712.709-1.107,1.062-.367.329-.763.663-1.178.994-.382.3-.789.614-1.211.92-.382.278-.788.56-1.2.84-.369.248-.759.5-1.159.754l-1.226.776-.089.057-1.238.784c-.12.075-.256.146-.4.221h0c-.161.085-.328.172-.479.269a1.587,1.587,0,0,0-.386.329l-.22.42-.3.564c-.1.17-.2.352-.293.54s-.181.37-.268.567c-.161.363-.316.755-.474,1.2-.293.821-.55,1.692-.8,2.534h0v0c-.067.226-.135.459-.2.687L15.2,27.573l-.058.275-.168.8h-.023a.867.867,0,0,1-.206-.069,1.213,1.213,0,0,1-.2-.118,1.787,1.787,0,0,1-.184-.157c-.057-.055-.115-.118-.173-.186a6.664,6.664,0,0,1-.568-.826l-.1-.167c-.257-.408-.527-.851-.77-1.33a7.617,7.617,0,0,1-.588-1.5l.077-1.022.06-.795.1-1.275a8.925,8.925,0,0,0-.836.714c-.253.243-.513.518-.772.816A21.942,21.942,0,0,0,9.418,24.5l-.159.216-.113.153-.126.171-.07,2.319c0,1.18.072,2.288.142,3.36h0c.045.686.091,1.394.116,2.1a1.409,1.409,0,0,1-.441-.1,2.376,2.376,0,0,1-.444-.235,4.873,4.873,0,0,1-.851-.744,9.345,9.345,0,0,1-.727-.89c-.235-.325-.408-.6-.512-.773l-.056-.108-.436-.829v.047a3.5,3.5,0,0,0-.265.456c-.1.2-.216.441-.328.694s-.215.5-.3.716a3.738,3.738,0,0,0-.166.522,7.08,7.08,0,0,0,.294,1.32c.084.3.172.591.247.825a2.667,2.667,0,0,0,.162.432,3.687,3.687,0,0,0,.759.607,8.111,8.111,0,0,1,.66.485,1.637,1.637,0,0,1,.232.235.662.662,0,0,1,.071.112.348.348,0,0,1,.034.108l-.9,1.141L6.114,37l-.546.688-.485.612-.588.81-.653.9.071.4.122.688.031.176.151.846.371,1.593.074.316.445,1.909.449,1.416.112.353.494,1.558.357.958.042.112.114.3.308.827-.023.023H6.864l-.234-.515a12.164,12.164,0,0,1-1.687.749l.043.216.019.1.031.156-.047-.006a.063.063,0,0,1-.057-.028h0l-.012-.013A1.2,1.2,0,0,1,4.76,51.8c-.04-.125-.071-.262-.1-.394h0c-.027-.123-.056-.25-.092-.367l-.406-1.39L3.748,48.23l-.127.049-.166.064L.047,49.659,0,49.636l.047-.117L.6,49.3l.289-.115.335-.134-.094-.094-.012-.031-.006-.015c-.075-.2-.177-.465-.3-.717a3.006,3.006,0,0,0-.2-.35A1.027,1.027,0,0,0,.4,47.6H.375a.372.372,0,0,1-.094.234l-.032-.022L.23,47.8l-.019-.013c.017-.4.045-.8.083-1.2.036-.383.083-.773.138-1.161.053-.368.115-.746.185-1.124.066-.355.142-.722.225-1.091.148-.658.325-1.344.54-2.1.207-.726.424-1.426.61-2.015.127-.4.25-.822.369-1.226h0c.192-.653.391-1.329.613-1.968.12-.344.237-.651.357-.937.135-.321.272-.609.417-.88l-.4-1.324-.132-.44-.266-.884a2.514,2.514,0,0,1,.232-.645c.1-.212.23-.419.339-.6l0,0L3.631,30c.245-.419.473-.852.694-1.27h0c.22-.417.447-.847.688-1.259a4.829,4.829,0,0,0,.265-.573h0c.081-.2.165-.4.262-.578a1.942,1.942,0,0,1,.156-.249,1.017,1.017,0,0,1,.184-.192h.094a15,15,0,0,1,.575,1.61h0c.077.243.156.495.238.735.092.269.179.5.265.7L7.1,28.9l.076-.123.076-.123.033-.053.119-.193-.024-.7-.023-.655c0-.629.014-1.172.042-1.659.016-.285.038-.557.064-.808.029-.272.064-.53.1-.766l.029-.331.041-.466a.986.986,0,0,1,.182-.253,3.863,3.863,0,0,1,.307-.292c.23-.2.491-.4.7-.555h0c.085-.064.158-.12.215-.164,1.3-1.027,2.649-2.089,4.076-3.092.052-.036.134-.1.239-.178a5.378,5.378,0,0,1,1.6-.98.149.149,0,0,1,.057.01,2.452,2.452,0,0,1-.105.6c-.058.2-.132.4-.2.588-.059.157-.115.305-.16.449a17.72,17.72,0,0,0-.478,1.786c-.067.33-.117.651-.154.979-.04.36-.063.72-.07,1.1.244-.152.454-.284.626-.407a2.363,2.363,0,0,0,.414-.362,2.221,2.221,0,0,0,.31-.469,7.763,7.763,0,0,0,.313-.729,5.1,5.1,0,0,0,.191-.746h0a6.519,6.519,0,0,1,.2-.8,1.723,1.723,0,0,1,.151-.33.962.962,0,0,1,.1-.132.685.685,0,0,1,.112-.1l1.041-.632.927-.563c.733-.459,1.595-1,2.434-1.569.879-.593,1.639-1.144,2.323-1.685.383-.3.751-.61,1.092-.912.362-.321.709-.648,1.031-.973.339-.342.661-.693.959-1.044.311-.367.606-.746.876-1.126a13.809,13.809,0,0,0,.965-1.533,7.572,7.572,0,0,0,.652-1.642,6.613,6.613,0,0,0,.169-.9,6.994,6.994,0,0,0,.044-.975,8.218,8.218,0,0,0-.1-1.064,10.489,10.489,0,0,0-.255-1.169c-.156-.565-.329-1.106-.515-1.609-.1-.26-.2-.516-.3-.759S27.383.3,27.269.065C27.3.022,27.373,0,27.49,0a2.064,2.064,0,0,1,.366.042c.125.024.268.057.425.1.285.077.546.165.652.2L29,.372c.88.334,1.711.65,2.515,1,.43.185.816.362,1.18.543.405.2.776.4,1.133.614.421.251.835.5,1.229.753s.807.518,1.191.777.783.537,1.158.809.763.562,1.13.847l.732.664.3.27.726.659c.324.261.635.537.925.821a10.437,10.437,0,0,1,.833.913l.328.328-.159,2.542-.012.19-.087,1.392q.008.476.016.952v.007l.008.47.047,1.523c.071.431.128.859.182,1.273h0c.065.491.126.954.209,1.414.045.247.092.47.143.681.058.236.12.452.191.661l1.164.655,1.084.61c.045-.3.078-.618.1-.935s.028-.646.022-.963-.027-.646-.062-.951a8.034,8.034,0,0,0-.151-.9c-.021-.092-.059-.227-.1-.383h0c-.069-.25-.156-.562-.215-.84a3.6,3.6,0,0,1-.064-.382.785.785,0,0,1,.007-.269.15.15,0,0,1,.146-.065,1.3,1.3,0,0,1,.443.12,6.123,6.123,0,0,1,.566.276c.18.1.476.266.861.512l.306.195h0c.666.424,1.355.861,2,1.343.348.261.65.509.923.758.148.135.289.274.419.41s.265.289.381.433a3.713,3.713,0,0,0,.4.395h0a4.612,4.612,0,0,1,.409.4,1.6,1.6,0,0,1,.163.223,1.026,1.026,0,0,1,.108.245l.07.937c.045.277.127.831.169,1.434a7,7,0,0,1-.028,1.518c-.024.152-.044.32-.056.486-.014.184-.02.36-.016.521a2.809,2.809,0,0,0,.043.469.818.818,0,0,0,.123.328l.258.242.143.134.349.327.047-.023c.1-.346.2-.7.316-1.076v0h0c.163-.548.331-1.114.48-1.661a5.748,5.748,0,0,0,.113-.568c.028-.169.056-.344.1-.507a1.763,1.763,0,0,1,.166-.447h.094c.112.11.224.228.332.35s.207.241.308.37c.186.238.368.5.556.788.157.244.321.518.5.837.162.285.323.58.478.866.2.361.4.735.612,1.1A11.066,11.066,0,0,1,58.1,30.122l-.141.937-.168.765-.071.324-.012.055-.31,1.409a1.543,1.543,0,0,0,.19.764,2.92,2.92,0,0,1,.114.29l.272,1.079.034.133.3,1.2a4.125,4.125,0,0,1,.712.356c.3.173.638.391.99.63s.676.474.941.682a3.678,3.678,0,0,1,.566.51,2.628,2.628,0,0,1-.094.661c-.055.21-.128.41-.2.6h0c-.047.13-.091.252-.13.375l-.355,1.153-.1.313-.2.666-.337.934-.053.146-.219.607.188,1.147.234,1.43a2.188,2.188,0,0,1,.026.383,2,2,0,0,1-.04.364,1.739,1.739,0,0,1-.1.332,1.441,1.441,0,0,1-.162.286,1.058,1.058,0,0,1-.7.439l-.445-.234-.445-.234-.57,1.286-.625,1.408c-.05.114-.095.247-.143.389a5.112,5.112,0,0,1-.193.511,1.07,1.07,0,0,1-.274.389Zm-54.3-9.839-.062.316-.062.316-.087.445-.078.637-.056.458-.023.184-.1.829-.031.254-.028.226-.059.48H1.71l.767-.24.8-.252-.387-1.312-.081-.273L2.507,43.8l-.116-.512-.086-.38-.032-.139h0Zm2.46-7.379-.443,1.062-.153.366-.042.1-.486,1.165.666-.76.166-.189.266-.3.566-.645a2.938,2.938,0,0,0-.233-.431,1.661,1.661,0,0,0-.306-.365ZM51.75,29.161h0v.023l-.023.68a.943.943,0,0,0,.188-.175.552.552,0,0,0,.116-.246l-.158-.158-.053-.053-.07-.07ZM14.618,24.335l-.492.211,0,.01a3.348,3.348,0,0,0,.128.357.851.851,0,0,0,.2.289v-.047a.944.944,0,0,0,.073-.168,2.167,2.167,0,0,0,.065-.231,1.708,1.708,0,0,0,.037-.237.544.544,0,0,0-.011-.185Zm29.143-1.242.186.462.2.5.2.487h.023a2.373,2.373,0,0,1,.115-.363,1.077,1.077,0,0,0,.119-.6l-.843-.492Z" fill="#031568"/>
      </g>
    </g>
  </g>
</svg>
