<svg xmlns="http://www.w3.org/2000/svg" width="37.907" height="31.589" viewBox="0 0 37.907 31.589">
  <path id="reddit" d="M43.907,22.444a4.191,4.191,0,0,0-7.1-3,21.636,21.636,0,0,0-11.009-3.232l2.344-7.373,6.343,1.488-.009.092a3.443,3.443,0,1,0,.24-1.238l-6.836-1.6a.587.587,0,0,0-.695.392l-2.612,8.223a21.894,21.894,0,0,0-11.53,3.2,4.172,4.172,0,1,0-4.956,6.643,7.438,7.438,0,0,0-.136,1.355c0,6.176,7.594,11.2,16.928,11.2s16.932-5.026,16.932-11.2a7.5,7.5,0,0,0-.12-1.279,4.167,4.167,0,0,0,2.221-3.664ZM16.7,25.312A2.5,2.5,0,1,1,19.2,27.8,2.5,2.5,0,0,1,16.7,25.312Zm14.31,7.376c-1.257,1.251-3.235,1.861-6.04,1.861l-.022,0-.022,0c-2.805,0-4.783-.61-6.04-1.861a.582.582,0,0,1,0-.828.591.591,0,0,1,.831,0c1.027,1.02,2.729,1.519,5.209,1.519l.022,0,.022,0c2.477,0,4.182-.5,5.209-1.519a.591.591,0,0,1,.831,0,.582.582,0,0,1,0,.828Zm-.3-4.887a2.488,2.488,0,1,1,2.5-2.486A2.493,2.493,0,0,1,30.715,27.8Z" transform="translate(-6 -7)" fill="#fff"/>
</svg>
